<?xml version="1.0" standalone="no"?>
<!DOCTYPE svg PUBLIC "-//W3C//DTD SVG 20010904//EN"
 "http://www.w3.org/TR/2001/REC-SVG-20010904/DTD/svg10.dtd">
<svg version="1.0" xmlns="http://www.w3.org/2000/svg"
 width="512.000000pt" height="512.000000pt" viewBox="0 0 512.000000 512.000000"
 preserveAspectRatio="xMidYMid meet">

<g transform="translate(0.000000,512.000000) scale(0.100000,-0.100000)"
fill="#000000" stroke="none">
<path d="M1335 5109 c-237 -42 -351 -76 -505 -154 -290 -146 -519 -374 -663
-660 -80 -158 -114 -266 -147 -460 -19 -116 -20 -163 -20 -1275 0 -1112 1
-1159 20 -1275 33 -194 66 -297 146 -458 217 -432 621 -724 1115 -806 123 -20
157 -21 1280 -21 1111 0 1158 1 1274 20 194 33 302 67 460 147 284 143 515
374 658 659 80 157 114 265 147 459 19 116 20 163 20 1275 0 1111 -1 1160 -20
1275 -58 343 -191 606 -425 840 -236 236 -494 366 -840 425 -116 19 -160 20
-1285 19 -641 -1 -1187 -5 -1215 -10z m1759 -1074 c231 -42 393 -122 443 -219
22 -42 12 -169 -20 -261 -50 -143 -160 -335 -213 -370 -33 -21 -59 -19 -108
10 -110 64 -318 86 -447 45 -172 -53 -284 -179 -341 -385 -19 -70 -22 -105
-22 -280 0 -224 14 -299 77 -425 82 -165 262 -270 462 -270 121 0 302 46 359
91 39 31 65 21 119 -46 96 -119 207 -390 207 -507 0 -119 -99 -211 -300 -279
-196 -65 -499 -95 -703 -70 -480 61 -850 369 -1007 839 -146 438 -113 1076 76
1454 89 179 252 373 405 481 140 99 325 174 499 202 108 18 390 13 514 -10z"/>
</g>
</svg>
