<?xml version="1.0" encoding="utf-8"?>
<!-- Generator: Adobe Illustrator 28.0.0, SVG Export Plug-In . SVG Version: 6.00 Build 0)  -->
<svg version="1.1" id="Layer_1" xmlns="http://www.w3.org/2000/svg" xmlns:xlink="http://www.w3.org/1999/xlink" x="0px" y="0px"
	 viewBox="0 0 1000 898.9" style="enable-background:new 0 0 1000 898.9;" xml:space="preserve">

<path fill="#ffffff" class="st0" d="M872.6,155.5H131.1c-12.7,0-24.4,4.3-33.7,11.6c-0.3,0.2-0.7,0.5-1,0.8c-12.4,10.1-20.3,25.5-20.3,42.7v477.9
	c0,30.3,24.7,55,55,55h741.5c30.4,0,55-24.7,55-55V210.5C927.7,180.2,903,155.5,872.6,155.5z M123,231.8l254.3,264L123,667.4V231.8z
	 M544.3,513.8c-11.2,11.5-26.2,17.9-42.2,17.9c0,0-0.1,0-0.1,0c-16.1,0-31.1-6.4-42.3-18l-28.9-30c-0.2-0.3-0.5-0.5-0.8-0.8
	L159.8,202.4h686.4L544.3,513.8z M410.3,530.1l15.6,16.2c20.1,20.8,47.1,32.3,76,32.4c0.1,0,0.1,0,0.2,0c28.9,0,55.8-11.4,75.9-32.2
	l15.7-16.2L840,696.5H163.7L410.3,530.1z M626.8,496l253.9-262v433.3L626.8,496z"/>
</svg>
