<?xml version="1.0" encoding="utf-8"?>

<svg version="1.1" id="Layer_1" xmlns="http://www.w3.org/2000/svg" xmlns:xlink="http://www.w3.org/1999/xlink" x="0px" y="0px"
	 viewBox="0 0 2002 2002" style="enable-background:new 0 0 2002 2002;" xml:space="preserve">
<g id="linkedin_00000099648945049483378380000008230449884086423485_" fill="#ffffff">
	<path  d="M1328.35,1613.18h-654.7c-76.08,0-147.61-29.63-201.41-83.42c-53.8-53.8-83.43-125.32-83.43-201.41v-654.7
		c0-76.08,29.63-147.61,83.43-201.41c53.8-53.8,125.33-83.42,201.41-83.42h654.7c76.08,0,147.61,29.63,201.41,83.42
		c53.8,53.8,83.43,125.32,83.43,201.4v654.7c0,76.08-29.63,147.61-83.43,201.41C1475.96,1583.55,1404.43,1613.18,1328.35,1613.18z
		 M673.65,438.82c-129.49,0-234.84,105.34-234.84,234.83v654.7c0,129.49,105.35,234.83,234.84,234.83h654.7
		c129.49,0,234.84-105.34,234.84-234.83v-654.7c-0.01-129.48-105.36-234.83-234.84-234.83H673.65z"/>
	<g id="logo_00000096751149879270953810000005796642061712693933_">
		<rect x="637.83" y="875.31" width="155.73" height="500.11"/>
		<path  d="M1376.23,1060.19v315.23H1220.5v-247.53c0.83-15.14,0.9-29.07,0-41.8c-4.22-61.07-29.37-93.68-82.99-93.68
			c-14.23,0.75-27.34,3.61-38.93,9.19c-33.36,15.89-54.67,53.54-56.1,126.29v247.53H886.74V875.31h149.71l1.51,63.48
			c44.58-53.99,102.26-86.38,182.54-81.26C1333.76,876.06,1373.07,953.63,1376.23,1060.19z"/>
		<circle cx="715.7" cy="716.51" r="89.93"/>
	</g>
</g>
</svg>
