<?xml version="1.0" encoding="utf-8"?>
<!-- Generator: Adobe Illustrator 28.0.0, SVG Export Plug-In . SVG Version: 6.00 Build 0)  -->
<svg version="1.2" baseProfile="tiny" id="Calque_1"
	 xmlns="http://www.w3.org/2000/svg" xmlns:xlink="http://www.w3.org/1999/xlink" x="0px" y="0px" viewBox="0 0 524.8 524.8"
	 overflow="visible" xml:space="preserve">
<path d="M169,337.4c1.4-0.1,2.8-0.1,4.2-0.1c-0.1,0.3,0.4,0.9-0.3,1.1c-1.4,0.2-2.8,0.2-4.2,0.1c-1.1-0.1-1.7-0.6-2.5-0.8
	c-1.7,0.3-3,0.3-4,0.4c-0.8,0.1-1.6,0.1-2.4,0.1c-1.2-0.1-1.9-0.5-3.3-1.3l6.2,0.3c-0.8-0.5-1.1-1-1.8-1.1c-2-0.2-4.1-0.4-6.2-0.6
	l-6.3-0.5c-2-0.2-4.1-0.2-6.2-0.2c-2.1,0-4.2,0-6.2-0.2l0.6-0.3l-2.2-0.9c-0.4,0.3-1,0.5-1.1,0.8c-0.2,0.7-0.3,1.3-0.3,2l3.3-0.1
	l1.6-0.1l1.6-0.1c1.9-0.1,3.8,0,5.7,0l0.3,0.5l-4.8,0.1l-2.4,0.1c-0.8,0-1.6,0-2.4-0.1l-9.6-0.2v0.1c3.9,0.3,7.7,0.7,12.2,1.1
	c-1.5,0.4-4.4,0.4-7.6,0.2c-1.6-0.1-3.3-0.3-5-0.6l-1.2-0.2l-1.2-0.2c-0.8-0.2-1.5-0.3-2.2-0.6l1.5-0.9c-3.7-0.6-7-1.1-11.1-1.7
	c1.5,0.6,2.5,1,4,1.6c-1.4-0.1-2.6-0.2-3.9-0.3l-4.1-0.4l3.5-1.5c-0.9-0.2-1.2-0.3-1.6-0.4l-3.5-0.7c0.6-0.2,1.4-0.4,1.9-0.6
	c0.4-0.2,1.1-0.4,0.8-0.5c-2.6-1.1-0.3-1.1,1.4-1.4l-9.1-0.7l-0.7-0.7c1.9,0,3.7-0.1,5.6,0.1c2,0.2,4.3,0.8,6.1,0.8
	c2.5,0.1,4.5,0.2,5.7,0.9c0.8,0.6,0.8,1.1,1.2,1.8l2.2,0.2c1.5-0.6,2-1.4,3.8-1.4c2.9-0.1,6.3-0.4,10,0.5c1.2,0.2,2.5,0.3,3.9,0.4
	c2.8,0.2,5.8,0.2,8.4,0.6c4.6,0.6,8.2,0.2,11.7-0.5h-6.3c-1.1,0-2.1,0-3.1-0.1l-3.1-0.1l-0.8-0.7c-2-0.1-4-0.1-5.8-0.1l-1.4-0.1
	l-1.3-0.1c-0.8-0.1-1.7-0.2-2.4-0.3c-3.1-0.6-6.1-0.7-9.2-0.6c-1.8,0.1-3.5-0.1-5.2-0.7c-2.5-0.9-5-1-8.2-1.2
	c-2.2-0.1-4.4-0.3-6.6-0.6c-2.3-0.2-4.5-0.5-6.7-0.8c-0.4-0.2-0.7-0.3-1.1-0.6l-7.8-0.9c-2.5-0.3-5-0.7-7.5-1.1l0.1,0.4
	c3.1,0.8,6.7,1.4,9.1,2.2c2.4,0.8,3.7,2,5.7,3.2c-2.2-0.2-3.9-0.3-5-0.6c-1.4-0.5-2.9-0.6-4.3-0.4c-3,0.3-9-1.3-11.3-2.7
	c-0.6-0.4-2.3-0.8-3.6-1.2c-2.2-0.6-4.5-1.2-6.7-1.8l0.2-0.4l9.7,2l0.2-0.3l-5.2-1.9c0.9,0.1,1.5,0.1,1.9,0.1c0.7-0.1,1.8,0,1.9-0.2
	c0.1-0.2-1-0.9-1.5-1c-1-0.1-1.9-0.2-2.9-0.2c-1.2-0.1-2.5-0.3-3.5-0.4c-1.2-1.1-2.1-1.8-2.8-2.4c2.8-0.4,8.4,0.6,9.2-0.8l4.4,1
	l-0.7,0.2c1,0.4,1.9,0.8,2.9,1.2s2,0.8,3.1,1.1c0.3,0.1,2.1,0.1,2.2-0.1c0.1-1,2.5-0.7,5.2-0.2c3.3,0.6,6.6,1.6,10.2,1.8
	c1.1,0.2,2.3,0.5,3.3,0.8c-0.8,0.2-1.8,0.3-2.6,0.3c-1-0.1-2.2-0.1-3.2-0.2c-2.2-0.1-3.9-0.1-3.8,0.8c1.4,0.1,2.4-0.1,3.6-0.1
	c1.1,0.1,2.3,0.1,3.5,0.2l3.6,0.1c0.7,0,1.6,0.2,2.2,0.2c2.2-0.1,4.3,0.1,6.4,0.5c1.7,0.2,3.4,0.8,4.9,1.6c1.3-0.2,2.5-0.5,4-0.7
	c1.1-0.1,3.2,0,3.6-0.3s-0.8-0.8-1.4-1.4c1.1,0.1,2.6,0,3.6,0l1.9,0.9l7.3-0.8l-0.7-0.4c-1.5-0.1-3.1-0.3-4.6-0.3
	c-3.3-0.2-5.2-0.9-3.9-1.7c0.3-0.2,0.7-0.3,1.1-0.5l-0.7-0.3c-1.2,0.1-3.1,0.1-3.5,0.3c-1.3,0.8-1.9,1.7-3.1,2.5
	c-1.4,1-2.9,1-6.9,0.1c-2.1-0.5-4.2-1-6.3-1.3c-2.2-0.3-4.4-0.6-6.6-0.6c-1.2,0-2.9-0.6-4.4-0.9c-1-0.3-1.8-0.6-2.7-0.9
	c0.2,0.3,0.3,0.6,0.5,0.9l-5.5-0.8l-6.1-1.1l2.8-0.2c-2.9-1-5.9-1.9-8.7-2.9l-8.6-3.1L71,312c-1.8-0.2-3.6-0.7-5.3-1.2
	c-1.4-0.4-2.7-1.1-3.9-1.9c-1.1-0.7-2.2-1.3-3.3-1.8c-1.3-0.7-2.7-1.2-4.1-1.6c-1.5-0.4-2.9-0.8-4.3-1.3c-1.4-0.5-2.6-1-4-1.5
	c-1.6-0.7-3.5-1.3-5.3-2l-0.8,0.8c-6-1.9-6-2-7.8-1.7c1.9,0.9,3.9,1.6,5.9,2.2c1.6,0.5,3.3,0.8,5,0.8c1.5,1.4,0.9,1.8-2.5,1.4
	l0.7-0.6l-0.8-0.4c-1.4-0.1-2.7-0.2-3.7-0.3c1.1,0.9,2,1.7,3.1,2.6c1,0,2.1,0,3.3,0.1c0.8,0.2,1.7,0.4,2.5,0.7
	c0.3,0.1,0.6,0.6,0.4,0.7c-1.5,0.7-6.1-0.4-8.7-2.2c-1-0.6-1.9-1-3-1.4c-1.9-0.7-3.9-1.4-5.7-2.1c-2.3-0.8-4.6-1.7-6.8-2.3
	s-4.1-1-5.5-0.7c-0.7-0.1-1.4-0.2-2.2-0.4c-1.8-0.3-3.5-0.7-5.2-1.1l2.3,1.4c0.8,0.4,1.6,0.9,2.3,1.3c1.3,0.8,2.3,1.6,3.5,2.4
	c-1.2-0.2-2.3-0.3-3.6-0.6c-2.4-0.6-2.9-0.2-1.3,1c1.2-0.2,2.5-0.1,3.7,0.3c1.7,0.5,3.3,1.1,4.9,1.9l-2.3,0.2l3.2,1.4l0.2,0.3
	c-2.5-1-5.2-1.8-7.8-2.3c-2.5-0.4-5-0.9-7.4-1.8c1,0.4,1.9,0.8,2.8,1.1c1.1,0.4,2.3,0.9,3.4,1.4c-0.5,0.2-1,0.3-1.5,0.4l-2.8,0.7
	c-0.9,0.2-1.9,0.4-2.8,0.7c-0.2,0.1,0,0.6,0.3,0.7c3,1.4,4.4,3.4,8,4c0.8,0.7,1.4,1.2,2,1.7l1.8,1.5c0.5,0.4,0.8,1,1.5,1.2
	c1.2,0.5,2.5,0.8,3.8,1.1c3.7,0.3,3.5,0.2,7.2,2.4c1.2,0.7,3.1,1.7,3.8,1.1s2.7,0,4.7,0.3c4.5,0.8,9,1.4,13.4,2
	c1.2,0.2,2.5,0.4,3.9,0.6c0.2,0.1,1.1,0.7,1,0.7c-0.9,0.1-2.2,0-3.1,0.1c-0.7,0-1.5,0.1-2.2,0.3c-0.4,0.2-0.2,0.6-0.2,1
	c2.2,0.7,4.5,1.3,6.7,1.9c2.2,0.6,4.4,1.2,6.6,1.6c4.4,0.8,8.5,1.3,12.3,1.1c3.6,1,7.3,2.1,10.9,3c0.6,0.2,1.2,0.2,1.9,0.3
	c2.3-0.5,4.3,0.5,6.3,1.1l3.2,1c1.1,0.3,2.2,0.6,3.3,0.9c0.7,0.2,1.4,0.2,2.2,0.1c0.7-0.5,1.9-0.6,3.3-0.6c1.4,0.1,3.2,0.4,5,0.6
	c-1.6,0.8,1.1,0.9,2.8,1.2l-0.1-0.1c0.6,0.3,1,0.8,1.8,1c1.8,0.3,3.7,0.5,5.7,0.7c-0.2-0.4-0.4-0.8-0.6-1.1c2-0.2,4.1,0.3,6.1,0.7
	c2,0.4,3.9,0.8,5.6,0.3l2.9,0.5l2.8,0.4c1.9,0.3,3.6,0.5,5.5,0.7c1.8,0.2,3.8,0.3,5.7,0.3s3.9,0,5.8,0c1.6,0,3.2-0.2,4.9-0.3
	l-2.5-1.1c1.8-0.6,5.3-0.8,9-0.8c3.5-0.1,6.9,0.2,10.3,0.9l-10.9,0.4l0.1,0.3c1,0.1,2,0.1,3,0.1h7.9c2.6-0.1,5.3-0.1,7.9-0.1
	l10.5-0.1c1.8-0.1,3.5-0.2,5.3-0.3c1.8-0.2,3.6-0.4,5.4-0.8c1.3-0.2,2.6-0.4,4-0.4l3.1-0.2l3.1-0.2c2-0.2,4.1-0.4,6.1-0.6
	c4.1-0.5,8.2-1.1,12.3-1.8l4.2-0.7l4.2-0.7l4.2-0.7c1.4-0.3,2.8-0.6,4.2-0.8c2.1-0.4,4.2-0.8,6.3-1.4c2-0.5,3.9-1.2,5.7-2.1
	c1.2-0.5,2.6-0.9,4-1.1c1.4-0.2,2.7-0.4,4.1-0.6c1.4-0.2,2.7-0.5,4.1-0.8c1.4-0.3,2.8-0.7,4.1-1.1c1.4-0.4,2.8-0.9,4.3-1.4
	c5.3-1.8,11-3.3,16.5-5.1c2.8-0.9,5.6-2,8.3-3c2.8-1,5.5-2.1,8.2-2.9c1.6-0.6,3.2-1.1,4.8-1.7l2.4-0.9l2.3-0.9l4.6-1.9l4.6-2
	c8.7-3.8,17.4-7.5,25.9-12c5.4-2.8,11-5.1,16.3-8c9.7-5.5,19.1-11.5,28.2-17.8c4.8-3.3,9.6-6.8,14.3-10.3c2.4-1.7,4.6-3.6,7-5.3
	s4.6-3.6,6.9-5.4c4.8-3.8,10-7.4,14.7-11.4c5.7-4.7,10.7-10.1,17-14.1c3.2-2,6.8-5.9,10-7.5c0.4-0.3,0.8-0.7,1.1-1.1l-2-0.2
	c4-4.1,7.6-8.1,11.4-12.1c3.1-3.3,6.5-6.6,9.3-9.9c3.1-3.8,6.1-7.7,8.7-11.5c4-5.7,3.9-5.7,0.6-3.7c1.1-2.5,3.6-5.1,5.8-7.8
	c0.7-0.9,1.7-2.6,1.5-2.8c-0.6-0.6-1.6-0.5-2.2,0.1c-1.8,1.9-3.9,3.6-6.1,5c-3.7,2.3-8,5.5-11.7,7.6c-2.3,1.3-4.3,1.9-5.8,1.9
	c-0.6,0,0.8-2.3,1.3-3.6c0.1-0.1-0.1-0.1-0.1-0.1c-1,0.8-1.9,1.6-2.7,2.2c-1,0.7-2.2,1.3-2.7,1.8c-0.7,0.8-1.2,1.8-1.6,2.8
	c-0.1,0.7-0.8,1.9-1.8,3.1c-0.9,1.2-2,2.3-3.2,3.2c-4.8,3.3-10,8-15.1,11.2c-4.5,2.9-10.1,7.5-15.2,11.6c-4.8,3.8-10.3,7.3-14.2,12
	c-0.1,0.1-0.2,0.2-0.3,0.2c-6.8,5.5-13.7,11.1-21,15.9c-9.3,6.1-18.4,12.2-27.8,18.1c-2.3,1.4-4.6,2.9-7,4.2
	c-2.4,1.3-4.8,2.7-7.1,4.1c-7.5,4.2-15.2,8.2-22.9,12c-2.1,1-3.3,1.8-3.7,2.7c-0.2,0.6-1.2,1.4-2.1,2.4l-2-0.2
	c-1.6,1.2-3,2.1-4.4,3.1l-0.7,0.1c1.5-1.2,3.1-2.3,4.7-3.6c-2.7,0.8-5.3,1.7-7.8,2.9c-2.4,1-4.8,2.2-7,3.6c-1,0.6-2,0.9-3.1,1.2
	c-3.6,0.8-7,2.1-10.1,3.9c3.4-1.2,5.1-1.3,4.9-0.2h0.1c1.1-0.4,2.1-0.9,3.6-1.6c-0.5,0.6-1.5,1.4-1.8,1.8c-0.3,0.4,0.2,0.6,2.8-0.3
	c-1.1,0.7-2.2,1.3-3.3,2c2.5-0.1,3.7,0.1-0.6,2c-0.4,0.2-0.7,0.4-1.1,0.7c-1.9,1.3-3.7,2.5-5.8,3.8c-1.1,0.5-2.3,0.9-3.5,1.2
	c-0.1,0-0.1-0.1-0.1-0.1l2.7-1.2L309,303c-0.7,0.2-1.6,0.5-2.4,0.8c-0.7,0.2-1.4,0.4-2.1,0.5c-1.6,0.2-4.1,0.2-3.8-0.1
	c1.1-0.9,1.8-1.8,2.8-2.7c1.4-1.2,3.1-2.3,4.8-3c0.8-0.4,1.6-0.8,2.9-1.6l-4.4,0.3c-2.7,2.4-3.9,3-8.2,4.1c-0.8,0.3-1.6,0.4-2.5,0.6
	c-2.2,0.2-4.2,1-6.1,2.2c-1.2,0.6-2.5,1.1-3.9,1.4c-8,1.4-15.7,4.4-23.7,6.1c0.1,0.5-0.6,1.2-1.6,1.8c-1.1,0.6-2.3,1.1-3.5,1.2
	c-1.8,0.2-3.5,0.3-5.2,0.3c-1.7,0.1-3.3,0.1-5,0.2c-1.2,0-2.5-0.1-3.7-0.2c1.7-0.5,3.3-1.1,5-1.7c0.2-0.1,0.2-0.2,0.3-0.2
	c-1.4,0-2.8,0.2-4.2,0.5c-1.1,0.3-2.2,0.7-3.2,1.4c-0.9,0.6-0.8,1.3-3.6,1.5c-1.4,0.1-2.8,0-4.1-0.2h0.1L228,317v1.2
	c-1.7,0.1-2.9,0.1-4.2,0.3c-1.6,0.1-3.2,0.4-4.7,0.7c-3.1,0.8-4.6,0.7-5.9,0.1l5.9-1.5c-3,0.1-5.7,0.5-8.4,0.7
	c-3.5,0.2-6.9,0.3-10.4,0.5c-1.6,0.2-3.2,0.4-4.8,0.8c0.9,0.3,1.9,0.5,2.8,0.4c2.4-0.1,4.7-0.1,6.9-0.1c2.1-0.1,4.2,0.1,6.2,0.4
	c1.9,0.3,3.2,0.4,2.4,1.2c-1,0.9,0.8,0.8,2.8,0.5c2-0.3,4-0.6,5.9-1c2-0.3,3.4-0.7,1.6-1.1c-0.3-0.1-0.7-0.2-1.1-0.4
	c2.2-0.7,4.5-1.1,6.7-1.4c1.9-0.3,3.9-0.3,5.7-0.2c2.3,0.2,1.9,1.1-0.8,1.9c-1.5,0.5-4.7,1.1-2.5,1.6c1.5,0.3,3.1,0.5,4.7,0.7
	s3.3,0.4,4.8,0.6c0.3,0.1,0,0.5-0.5,0.7c-0.8,0.3-1.7,0.6-2.6,0.7l0.1,0.2l5.5-0.9l0.1,0.3l-6.3,1.7c0.2,0.7,0.4,1.4,0.5,2.2
	c0,0.1-0.3,0.3-0.6,0.3c-2.9,0.8-5.8,1.6-8.7,2.3c-1.9,0.5-5,0.9-5.7,1.4c-1.1,0.8-2.4,1-4.5,1.2c-2.2,0.2-4.4,0.4-6.6,0.6
	c-2.2,0.2-4.4,0.3-6.5,0.7c-3.4,0.4-4.4,0.5-3.9-0.5c0.1-0.3-0.8-0.7-1.7-0.7c-1.1,0.1-2.3,0.2-3.4,0.5c-1.2,0.3-2.4,0.5-3.7,0.7
	c-1.9,0.1-3.7,0.1-5.6,0.2c-1.9,0.1-3.7,0-5.7,0.1c-1.2,0.1-2.5,0.2-3.7,0.4c-1.8,0.2-3.5,0.7-5.2,0.7c-3.9,0.1-6.2,0.4-7.1,1.4
	C167,337.5,168,337.4,169,337.4L169,337.4z M14.4,308.9l-0.3-0.1l-0.3-0.4l-0.3-0.1l0.2,0.1L14.4,308.9L14.4,308.9z M279.5,312.9
	c-0.9,0.4-1.9,0.8-2.8,1.1l-2.8,1.1c-1.4,0.5-2.9,0.9-4.4,1.4c-1.2,0.4-2.4,0.7-3.6,0.9c-1.3,0.1-2.6,0.2-3.9,0.2
	c1.4-0.6,2.8-1.2,4.2-1.7c1.4-0.4,2.9-0.8,4.4-1.2c3.4-0.8,7-1.1,9.9-3c0.1,0,1.5-0.1,2.3-0.2l1.8-0.7l0.1,0.1l-1.9,0.6
	C281.7,312,280.7,312.5,279.5,312.9L279.5,312.9z M258.5,323.1l3.7-1.2l-1.9-0.5l2.3-0.6l2.3-0.7c1.6-0.4,3.2-0.9,4.8-1.3
	c0.7-0.2,1.5-0.1,2.2,0.1c0.6,0.3,0.7,0.7,1.1,1.1c0.5,0.3,1.1,0.7,2,1.3c-1.8,0.3-3.1,0.6-3.2,0.6c-1-0.7-3.5-0.1-6.3,0.7
	c-1.2,0.3-2.4,0.6-3.7,0.7c-0.7,0.6,0.7,0.6,1.9,0.6c1.1,0,2,0.1,0.1,1.1l4.6-0.6v0.2l-4.2,1.2c-1.4,0.4-2.8,0.7-4.2,1.1l-4.3,1.1
	l-4.4,1.1c-0.1-0.7,0.6-1.3,4-2.1c1.1-0.3,2.1-0.7,3-1.3c0.3-0.2-0.5-0.6-1.1-0.6c-1.4,0.2-2.9,0.4-4.2,0.8c-1.6,0.6-3.3,1.1-5,1.6
	c-1.8,0.4-3.7,0.8-5.6,0.9l5.2-1.3c-0.5-0.1-0.8-0.2-1.3-0.3c-1.1-0.5-1.7-0.7-1.4-1.1c0.3-0.3,1.6-0.7,4.2-1.6
	c1.7-0.6,3.1-1.2,4.8-1.8c2.4-0.8,3.4-0.7,3.2,0.1c-0.1,0.3,0.5,0.6,0.8,0.8h-0.1L258.5,323.1L258.5,323.1z M262.1,316.5
	c-1.2,0.4-3.2,0.9-3.5,1.3c-0.6,0.7-1.4,1.2-2.3,1.6c-1.6,0.7-3.2,1.1-4.9,1.3l0.6,0.3c2.2-0.4,4.4-0.9,6.7-1.4l0.7,0.2
	c-1.6,0.7-3.1,1.6-4.9,2.1c-4.4,1.1-8,1.4-9.1,0.1c0.5-0.2,1.1-0.5,2-0.8c-0.7-0.1-1.5-0.1-2.7-0.2c1.6-0.6,3.1-1.3,4.6-1.9
	c1.5-0.6,3.1-1.2,4.7-1.8c2.8-1.1,4.6-1.6,6.3-1.8c1.9-0.2,3.7-0.1,5.5,0.3C264.3,316,263.2,316.2,262.1,316.5z M340.7,288.6
	c0.1,0.4-0.8,1.3-1.8,2.1c-0.5,0.3-3.1,1.2-3.2,1.1c-0.5-0.3-0.6-0.9-0.2-1.6c0.3-0.6,1.5-1.4,2.7-2.4
	C341.6,286.5,340.5,287.9,340.7,288.6L340.7,288.6z M331.8,289.4c-0.7,0.7-1.6,1.3-2.5,1.8c-0.9,0.3-1.8,0.6-2.7,0.7
	c-1.3,0.2-2.5,0.4-3.6,0.5l2.4-1.2l2.5-1.3c1.7-0.9,3.5-1.8,5.3-2.7C332.6,288,332.4,288.7,331.8,289.4z M279.1,309.3
	c1.8,0.3,4.6,0.1,6.6,0.3c-3.1,0.8-6.2,1.4-9,2.1c2.9-1.6,2.9-1.6-1.5-1.2C276.2,309.8,276.6,309,279.1,309.3L279.1,309.3z
	 M355.1,282.5c-1.8,1.1-3.4,2.2-5,3.2c-0.8,0.6-1.8,1.1-2.7,1.5c-1.1,0.5-2.2,0.9-3.3,1.2C345.7,286.7,352.2,283.2,355.1,282.5z
	 M297.1,306.6l-0.6,1.6l-5.1,1l0.3-0.7L297.1,306.6z M54,309.6c-0.6,0.4-2,0.4-4.2-0.4c-0.5-0.2-1.1-0.6-1-0.7
	c0.1-0.1,0.6-0.2,1.1-0.2c1.1,0,2.3,0.1,4.2,0.2C54.1,309,54.4,309.4,54,309.6z M284.5,317.6l-5.5,1.9l-1.2-1.7L284.5,317.6
	L284.5,317.6z M59.4,322.1c3.3,0.8,5.8,1.4,8.3,2v0.3c-0.8,0-1.6-0.1-2.3-0.1c-0.6-0.1-1.3-0.2-1.9-0.4
	C62,323.5,60.7,322.9,59.4,322.1L59.4,322.1z M352.7,277.5c-0.2,0.7,0.1,1.3-0.6,1.7c-1.6,1-3.6,1.9-5.5,2.9v-0.3
	C348.4,280.5,350.2,279.3,352.7,277.5L352.7,277.5z M289.9,314.5c1-0.7,2-1.3,3.2-1.8c0.8-0.2,1.6-0.3,2.4-0.3c-1,0.6-1.9,1.2-4,2.5
	C290.7,314.7,289.6,314.7,289.9,314.5L289.9,314.5z M61.8,327.8l-0.2-0.5c3.1,0.2,6.5,1.2,9.7,1.9l0.1,0.3l-4.8-0.8l-2.4-0.4
	C64.2,328.3,61.8,327.8,61.8,327.8z M16.2,308c-0.5-0.3-1-0.6-1.5-1.1c0.8-0.1,1.6,0.1,2.5,0.2c1,0.4,2,0.9,3.1,1.5
	C18.9,308.5,17.6,308.2,16.2,308z M48.2,311.5c3.2,0.2,4.6,0.8,7,2.9L48.2,311.5z M302.4,307.5c-1.2,0.9-2.6,1.5-4.1,1.7
	c-1.1,0.1-2.3,0.2-3.3,0.6l0.2-0.5C297.4,308.6,299.7,308.1,302.4,307.5L302.4,307.5z M241.9,321.1c-3.4,0.7-4,0.3-3.8-0.6
	C241,320.2,243.1,320,241.9,321.1z M271.7,313.7c-1,0.2-1.9,0.2-2.9,0.2c0.5-0.3,1-0.6,1.5-0.8c1-0.3,2.1-0.5,4.4-0.9
	C273.1,313,272.4,313.6,271.7,313.7L271.7,313.7z M269.5,317.6l-0.4,0.6l-7.2,1.2l0.5-0.5L269.5,317.6L269.5,317.6z M221.9,337
	c1.5-1.2,2.3-1.4,6.6-1.4C225.8,336.1,224,336.6,221.9,337z M149.6,338c-0.1-0.2-0.2-0.6-0.1-0.6h3.8l0.2,0.5
	C152.2,337.9,150.9,338,149.6,338L149.6,338z M343.6,286.6l0.1-0.4l2.5-1.1l2.5-1.1l-0.1,0.6C346.9,285.2,345.3,285.9,343.6,286.6
	L343.6,286.6z M52.5,311.1c3,0.8,5.3,1.4,5.5,2.2l-1,0.1L52.5,311.1z M73.5,315.8c-0.4-0.2-0.8-0.3-1.1-0.6c0.6-0.2,1.2-0.3,1.9-0.4
	l1.5,0.7C75,315.7,74.3,315.8,73.5,315.8z M297.4,304.8l0.7,0.2l-2.7,1.3l-0.7-0.2L297.4,304.8z M32.8,309c-0.1-0.1,0.1-0.2,0.2-0.3
	l2.8,1l-0.3,0.3C34.5,309.7,33.6,309.3,32.8,309z M360.7,274v-0.4l2.9-1.4l0.1,0.4L360.7,274L360.7,274z M282.4,316.3L282,316l3-1.1
	l0.3,0.3L282.4,316.3z M79.7,328.1l0.5,0.4l-2.7-0.2l-0.5-0.4L79.7,328.1z M59.7,315.2c-0.4-0.2-0.8-0.4-1.1-0.7
	c0.3-0.1,0.6-0.1,1,0c0.6,0.2,1.1,0.4,1.9,0.8C60.8,315.3,60.2,315.2,59.7,315.2z M74.8,326.5c-0.1,0.1-0.6,0.1-1,0.2
	c-0.3-0.1-0.6-0.2-1-0.4c0-0.1,0.4-0.2,1.2-0.5C74.6,326.2,74.9,326.5,74.8,326.5z M316.5,304.8c0.2-0.3,0.6-0.5,0.9-0.7
	c0.3-0.1,0.6-0.2,0.9-0.1c0.1,0.1-0.3,0.3-1,0.9C317,305,316.5,305,316.5,304.8L316.5,304.8z M385.4,260.8l-0.3-0.1l1.9-1.4l0.2,0.2
	L385.4,260.8L385.4,260.8z M23.1,304.6c-0.1-0.1-0.2-0.2-0.2-0.2c0.5,0.1,1,0.2,1.5,0.3l0.3,0.3L23.1,304.6z M311.9,307.5
	c-0.2,0.1-0.5,0.1-0.7,0.1c0.3-0.2,0.6-0.4,0.8-0.6c0.4-0.1,0.7-0.2,1.1-0.2C312.6,307.1,312.3,307.3,311.9,307.5L311.9,307.5z
	 M15.9,299.7l0.1,0.2l-1.8-0.4l-0.2-0.3L15.9,299.7L15.9,299.7z M318.8,302.1c-0.1,0.1-0.2-0.1-0.3-0.1c0.3-0.2,0.6-0.3,0.9-0.4
	c0.1,0,0.2,0.1,0.3,0.1C319.4,301.8,319.1,301.9,318.8,302.1L318.8,302.1z M49.2,306.6L49.2,306.6c-0.7-0.1-1.2-0.3-1.9-0.4l0.2-0.2
	C48.1,306.2,48.7,306.4,49.2,306.6L49.2,306.6z M86.4,330c0.1,0,0.3-0.1,0.4-0.1c0.2,0.1,0.5,0.2,0.7,0.3h-0.6L86.4,330z
	 M298.4,304.1c-0.2,0.1-0.4,0.1-0.6,0.2c0.1-0.1,0.1-0.2,0.3-0.3c0.2-0.1,0.4-0.1,0.6-0.2C298.6,303.9,298.6,304,298.4,304.1z
	 M343.4,291c-0.1,0.1-0.1,0.2-0.2,0.2c-0.2,0.1-0.4,0.2-0.6,0.2l0.2-0.3L343.4,291z M115.8,328.8c0.2,0,0.3-0.1,0.5-0.1
	c0.1,0,0.2,0,0.3,0.1l-0.1,0.1L115.8,328.8z M472,218.1c-0.1,0.1-0.1,0.2-0.2,0.2s-0.1,0.1-0.2,0.1l0.2-0.2L472,218.1z M183.6,340.1
	c-0.1,0-0.2-0.1-0.3-0.1c0,0,0.1-0.1,0.2-0.1l0.3,0.1L183.6,340.1z M196.8,336.4c-0.1,0-0.2,0-0.2-0.1l0.5-0.1
	C197,336.4,196.9,336.4,196.8,336.4L196.8,336.4z"/>
<path d="M154.3,321.2c2.3,0.2,3.6,0.9,2,1.3c-0.9,0.2-1.8,0.4-2.7,0.6c-1,0.2-2.1,0.3-3.1,0.3c-3,0.2-5.8,0.3-7.3,1.2
	c0.6,0.1,1.1,0.2,1.6,0.2c2.4-0.2,4.8-0.3,7.1-0.6l7.1-0.8c0.5-0.1,0.6-0.2,1.1-0.3c0.7-0.1,1.4-0.1,2.1,0c2.4,0.7,6.2,0.8,5.3,1.9
	c1.5,0.3,3.4,0.4,3.7,0.7c0.7,0.7,2,0.9,4.4,0.7c2.6-0.3,2.2-0.8,1.3-1.4c-0.5-0.3-0.3-0.8-0.3-1.1c1.6,0.1,3.2,0,4.6,0.1
	c1.4,0.1,2.8,0.3,4.2,0.5l0.6-0.2l-2.3-1.1c1.2-0.3,2.3-0.5,3.9-0.9c-2.9,0-5.4-0.1-7.8-0.1c-0.5,0-0.9,0.1-1.4,0.2l-1.3,0.3
	c-1.2,0.2-2.3,0.7-3.5,0.7c-0.8,0-1.7-0.5-2.5-0.8c-1.2-0.1-2.6-0.1-3.9-0.1c-1.2,0-2.4-0.1-3.5-0.3c-1.9-0.4-2.5-1.3-3.6-1.9
	c-2,0.3-4.1,0.4-6.2,0.3c-2.4,0-4.8-0.3-5.7-0.7c-2.8-1.2-6.6-0.9-10-1.2c-0.6-0.1-1.4,0.4-2.2,0.6c4,1,0.5,1.1-1.8,1.4
	c2.3,0.2,4,0.5,4.8,0.4c3.4-0.6,4.9-0.1,5.7,0.9c2.9,0.1,5.8,0.1,5.4-1.1C151.6,321.1,153,321.1,154.3,321.2L154.3,321.2z
	 M143.1,319.7l-0.2-0.2l2.3-0.1l0.1,0.1L143.1,319.7L143.1,319.7z M169.7,329.2h9.4c3.1-0.1,6.3-0.2,9.4-0.3
	c6.3-0.3,12.6-0.7,18.8-1.3l-0.5,0.8c3.3,0.2,5.7-0.1,7.5-1.6c1,0.1,1.5,0.4,2.1,0.4c2.2-0.2,4.3-0.6,6.4-1c0.5-0.1,1.1-0.7,0.7-0.9
	c-0.8-0.3-1.4-0.8-2.5-1.1c-1.1-0.2-2.8-0.1-5.7,0.7c-0.1,0-0.2,0.1-0.4,0.1c-2.1,0-4.2,0.2-6.3,0.4s-4.2,0.6-6.3,0.8
	c-1.5,0.2-2.9,0.7-4.4,1c-1.1,0.2-2.1,0.3-3.2,0.4c-0.5-1-3.5-0.3-5.4-0.3c-1,0-2.5-0.1-2.8-0.3c-1-0.7-2.5-0.4-4.4-0.2
	c-1.2,0.2-2.4,0.3-3.7,0.4c-3.3-0.1-5.3,0.2-4.7,1.1l-4.4,0.5L169.7,329.2L169.7,329.2z M180.8,328.4l-0.2-0.2l1.8-0.3l0.2,0.3
	L180.8,328.4L180.8,328.4z M150,328.4c1.4,0.1,2.8,0,4.1,0.1c1.3,0,2.7,0.2,3.9,0.6c0.5,0.2,2.4,0,3.6-0.1c0.3,0,0.7-0.4,0.6-0.4
	c-1.2-0.3-2.3-0.5-3.5-0.6c-5.7-0.2-5.7-0.2-5.1-1.6c-2.3,0-4.5-0.2-6.3-0.2l-2.1-1.1c-1.1,0.1-2.8,0.2-3.3,0.4
	c-1.4,0.6-2.9,1-4.5,1c-2.2,0.1-4.2-0.1-6.3-0.3c-0.7-0.1-1.5-0.1-2.2-0.1l0.1,0.2l7.8,0.8l-2.5,0.7l3.9,0.8l0.9-0.8
	C142.9,328.2,146.5,328.3,150,328.4L150,328.4z M143.4,326.5l0.5-0.3l4.8,0.7l-0.6,0.4L143.4,326.5L143.4,326.5z M198.7,331.3
	l6.6-1.4l-5.5,0.2c0.3-0.3,0.5-0.8,1.1-0.8c1.3-0.2,2.7-0.3,4-0.3c2.3,0.4,4.8,0.1,7.5-0.2c2-0.2,2.9-0.1,2.8,0.6
	c-0.1,0.6,0.7,1,1.3,1.6c-1.1,0.3-2.2,0.6-3.3,0.8c-1.2,0.2-2.4,0.3-3.7,0.5c-1.3,0.2-2.6,0.2-3.9,0.3c-1.3,0.1-2.7,0.1-4,0.2
	l-0.3-0.3c2-0.3,3.9-0.7,5.9-1.1l0.1-0.4c-1.2,0.1-2.5,0.1-3.7,0.1c-1.4,0.1-2.8,0.4-4.2,0.6L198.7,331.3z M157.3,334.5h6.4
	c0.7,0,1.5,0,2.3-0.1l-1.2-1c6.3-0.7,7.8,1.3,12.8,1.1l-0.4,0.3c-2.5,0.4-5.1,0.8-7.7,1.2c-0.6,0.1-1.2,0-1.8-0.1
	c-0.7-0.6-1.9-0.7-3.3-0.8c-1.4-0.1-3-0.1-4.5-0.1c-0.9,0-1.8-0.2-2.7-0.3L157.3,334.5L157.3,334.5z M118.4,317.7l5.5,0.9
	c0.9,0.2,1.9,0.3,2.8,0.4l2.8,0.4l-0.2,0.4l-2.7-0.2c-0.9-0.1-1.8-0.2-2.7-0.3c-3.1-0.4-6.3-0.8-9.2-1.4c-1.5-0.3-2.3-1.1-3.3-1.6
	c1.5,0.2,3.1,0.2,4.4,0.4C117,316.7,120.1,317,118.4,317.7z M228.3,330c-2.3,1.3-5.7,1.8-9.4,2.3c-1.6,0.2-3.1,0.4-4.7,0.7l-4.7,0.7
	c-1.1,0.2-2.2,0.3-3.3,0.4c-0.2,0-0.6-0.3-0.5-0.4c1-0.3,2-0.5,3.1-0.7l5.8-0.8l6.2-1C222.6,331.8,225.4,330.6,228.3,330L228.3,330z
	 M202.2,325.3c0.2-1.1,0.3-2.1,0.5-3.1l1.3-0.2c0.7,0.6,2,1.1,2.1,1.8S204.6,325.2,202.2,325.3z M26.1,295.1l4.6,2l5,2.1l-4.5-0.3
	c-2-1.3-3.7-2.4-5.4-3.5L26.1,295.1L26.1,295.1z M120.6,333.8c0.7-0.6,2-0.7,3.6-0.5c1.6,0.1,3.6,0.3,5.7,0.3l-2.9,1.8l-0.8-0.1
	c-0.3-0.4-0.3-0.8-1.1-1.1C123.6,334,122,333.8,120.6,333.8L120.6,333.8z M270.1,308.5l4.5-1.3l4.9-1.5c-1.2,1-2.5,1.7-4,2.2
	c-1.8,0.5-3.7,0.8-5.6,0.9L270.1,308.5L270.1,308.5z M226.7,328.4c-0.5,0.8-0.7,1.2-1.5,1.5c-0.8,0.3-2.2,0.4-5,0.4
	c0.6-0.6,1.3-1.1,2.2-1.3C223.7,328.7,225.2,328.5,226.7,328.4z M174.6,331.4l2.7,0.1c0.9,0.1,1.8,0.1,2.7,0.1l6.2,0.1
	c-2.1,0.4-4.2,0.6-6.5,0.7c-1.8,0.1-3.6-0.1-5.3-0.5L174.6,331.4L174.6,331.4z M295,302.6l-1.3-1.1l3.1-1l3-1
	c0.2-0.1,0.6,0.2,0.4,0.3C298.7,300.7,297.2,301.6,295,302.6L295,302.6z M256.7,311.8c0.8-0.3,1.7-0.4,2.5-0.6
	c1.4-0.1,2.7-0.1,3.9-0.1c-0.3,0.3-0.7,0.5-1.1,0.7c-1.5,0.2-3.1,0.4-4.5,0.4C257.2,312.2,257.2,312,256.7,311.8z M89.5,314.2
	c-2.6,0-5.2-0.6-7.5-1.7l7.5,1.3V314.2z M180.4,325.9c3.4-1.1,5.6-0.6,7.8-0.5c-0.5,0.3-1,0.7-1.3,0.7
	C185,326.1,183.2,326,180.4,325.9L180.4,325.9z"/>
<path d="M209.2,324.4c3.2-0.3,5.9-0.6,9.1-1C216.1,324.6,212.6,325,209.2,324.4z M116.3,319.4c-2.2,0.2-4.2-0.2-6.2-1
	c-0.3-0.1,0.2-0.3,0.3-0.5l3.1,0.6c1,0.2,2.1,0.4,3.2,0.6L116.3,319.4L116.3,319.4z M159.3,331.9c3.2,0.1,5.4,0.2,8.2,0.2
	c-1.4,0.5-2.8,0.8-4.2,0.8C161.9,332.8,160.5,332.5,159.3,331.9z M165.7,325.2c-1.1,0.3-2.2,0.6-3.3,0.8l-1.5-0.6l3.7-0.6
	C164.9,325,165.3,325.1,165.7,325.2L165.7,325.2z M191,331.6c1.2,0,2.4,0.1,3.6,0.3c0.7,0.2,0.5,0.6,0.6,0.9l-2.6-0.4l-2.2-0.4
	L191,331.6z M3.2,296.8l2.7,0.4l1.5,1.2l-3.2-0.8L3.2,296.8z M234,316.9c1.4-1.2,2.3-1.4,5.4-1.2l-2.7,0.6l-2.8,0.6L234,316.9
	L234,316.9z M107.3,321l4.6,0.8l-0.2,0.4l-4.6-0.7L107.3,321z M194.9,330.5l-3.6,0.6l-0.7-0.3l3.5-0.7L194.9,330.5z M191.7,334.6
	c-1.9,0-3.9,0.1-5.7,0.1l0.2-0.4c1.9,0.1,3.8,0,5.7-0.1L191.7,334.6z M187.7,321.5c-1.5,0.1-2.9,0.1-4.4,0.1l0.1-0.4
	c1.6-0.1,3.1-0.1,4.7-0.1L187.7,321.5z M14,297c-1.1-0.1-2.2-0.3-3.2-0.4l-0.8-0.7c1,0.1,2,0.2,2.9,0.2L14,297z M171.2,321.3
	c1.2,0.1,2.5,0.2,3.7,0.3c0.1,0-0.3,0.3-0.5,0.4l-3.9-0.3L171.2,321.3L171.2,321.3z M227.8,317.5l-4.4,0.4l0.1-0.4l4.4-0.5
	L227.8,317.5z M177.3,331c-1.1,0-2.2,0-3.2-0.1c-0.1,0,0.1-0.4,0.2-0.4h3.2L177.3,331L177.3,331z M313.1,300.2l3.5-1.3l0.1,0.4
	l-3.5,1.3L313.1,300.2z M308.1,300.9l2.9-1.7l0.8,0.1l-3,1.8L308.1,300.9z M95,317.2l-3.4-0.7l0.2-0.3l3.4,0.6L95,317.2z M26.8,300
	l-2.4-0.4l-0.6-0.7l2.5,0.6L26.8,300z M131.9,318.1l-3.6-0.4l0.1-0.3l3.6,0.3L131.9,318.1z M196.3,322.4l1.8,0.2
	c-0.4,0.2-0.8,0.4-1.3,0.5c-0.5,0.1-1-0.1-1.5-0.2C195.2,322.9,195.9,322.6,196.3,322.4L196.3,322.4z M226.3,326.8l-3.5,0.5
	l-0.1-0.3l3.4-0.6L226.3,326.8z M233.6,319.9c-0.5,0.3-0.8,0.5-1.4,0.7c-0.8,0.1-1.6,0.1-2.4,0.1c0.3-0.2,0.7-0.4,1.1-0.5
	C231.7,320,232.5,320,233.6,319.9L233.6,319.9z M85.9,311.5l3.1,1l-0.5,0.2l-3.1-1L85.9,311.5z M142,323.5l-3.5-0.1l-0.1-0.3
	l3.5,0.1L142,323.5z M81.1,315.3l-1.9-0.6l-1.9-0.6l0.3-0.2c1.2,0.4,2.5,0.7,3.9,1.1L81.1,315.3z M228.9,326.7l1.9,0.2
	c-0.2,0.1-0.4,0.2-0.6,0.3H228L228.9,326.7L228.9,326.7z M29.1,299.6c0.7,0.3,1.5,0.6,2.3,0.8l-0.4,0.3c-0.7-0.3-1.4-0.6-2.2-0.9
	L29.1,299.6z M160.4,330.7c-0.6-0.2-1.2-0.3-1.2-0.4c0.3-0.2,0.7-0.3,1.1-0.3s0.8,0.1,1.2,0.3C161.5,330.4,161,330.5,160.4,330.7
	L160.4,330.7z M171.4,330.8c-1.1-0.5-1.6-0.6-1.6-0.7c0.3-0.1,0.6-0.2,1-0.2c0.4,0.1,0.7,0.2,1.1,0.3
	C171.9,330.2,171.7,330.4,171.4,330.8L171.4,330.8z M105.8,314.7l-2.7-0.4l0.1-0.3l2.8,0.4L105.8,314.7z M18.5,296.8l2.5,0.9L21,298
	l-2.5-0.9L18.5,296.8z M86.6,323.5l-2.7-0.4l-0.2-0.3l2.7,0.3L86.6,323.5z M192.3,322.1c0.7-0.1,1.4-0.1,2.2-0.2
	c0.1,0,0.2,0.2,0.2,0.2c-0.7,0.1-1.4,0.2-2,0.3L192.3,322.1L192.3,322.1z M79,320.5l2,0.2l0.3,0.3l-2-0.2L79,320.5z M302.3,299.3
	c0.3-0.1,0.6-0.1,0.9-0.1l-0.5,0.5c-0.2,0.1-0.5,0.1-0.7,0.1C301.9,299.7,302.1,299.5,302.3,299.3L302.3,299.3z M83.3,325.3
	c0.4,0.1,0.8,0.3,1.2,0.5c-0.2,0.2-0.6,0.2-0.8,0.2c-0.4-0.1-0.7-0.2-1.1-0.4C82.6,325.5,82.9,325.4,83.3,325.3L83.3,325.3z
	 M219.3,328.5c0.4,0,0.8,0.1,1.2,0.2c0.1,0.1-0.5,0.3-0.7,0.3c-0.3,0.1-0.7,0.1-1.1-0.1C218.5,328.9,218.9,328.7,219.3,328.5
	L219.3,328.5z M196.7,324.9c-0.3,0.1-0.6,0.2-1,0.2l-0.8-0.2c0.3-0.1,0.6-0.1,0.9-0.2C196.1,324.8,196.4,324.9,196.7,324.9
	L196.7,324.9z M166.8,339.5l1.1,0.1l-0.7,0.3c-0.3,0-0.6-0.1-0.8-0.2C166.3,339.7,166.6,339.6,166.8,339.5z M123.2,317.5
	c-0.3-0.1-0.6-0.2-0.9-0.3c-0.1-0.1,0.3-0.2,0.5-0.2c0.3,0,0.6,0.1,0.8,0.2C123.8,317.3,123.5,317.4,123.2,317.5L123.2,317.5z
	 M85,326.3l1.3,0.7c-0.3,0-0.7,0.1-1.1,0c-0.2-0.1-0.4-0.2-0.6-0.3C84.7,326.6,84.9,326.5,85,326.3z M6.3,301l0.5,0.3
	c-0.2,0-0.3,0-0.5-0.1c-0.2-0.1-0.3-0.2-0.5-0.3L6.3,301z M149.7,334.2c-0.6,0-1,0.1-1.3,0.1c-0.1,0-0.2-0.1-0.3-0.2
	c0.2-0.1,0.4-0.1,0.6-0.1C149.1,334,149.4,334.1,149.7,334.2L149.7,334.2z M85,316.9l0.2,0.1c-0.1,0-0.2,0.1-0.4,0.1l-0.2-0.1
	L85,316.9z M82.7,314.2c-0.2,0.1-0.5,0.1-0.7,0.1c-0.3-0.1-0.7-0.2-1-0.2c0.2-0.1,0.5-0.2,0.6-0.2C82,314,82.4,314.1,82.7,314.2
	L82.7,314.2z M3.4,298l-0.5-0.1c-0.1-0.1-0.2-0.2-0.2-0.3h0.2C3.1,297.7,3.2,297.8,3.4,298z M146.1,329.5c-0.2,0.1-0.3,0.1-0.5,0.1
	c-0.1,0-0.2,0-0.3-0.1c0-0.1,0.1-0.1,0.1-0.2L146.1,329.5L146.1,329.5z M101.6,320L101.6,320c-0.1,0.1-0.1,0.1-0.2,0
	c-0.1,0-0.1-0.1-0.1-0.1L101.6,320z M66.6,310.1l0.5,0.2h-0.4c-0.1,0-0.2-0.1-0.2-0.1C66.5,310.2,66.6,310.2,66.6,310.1z
	 M165.6,329.2h0.2l-0.1,0.1L165.6,329.2z M113,332.2l0.3,0.1c-0.1,0-0.1,0.1-0.1,0.1c-0.1,0-0.2-0.1-0.3-0.1L113,332.2z
	 M316.2,295.5l-1.1,0.6l-0.1-0.1L316.2,295.5L316.2,295.5z M223.7,322.1h0.3l-0.1,0.1h-0.3L223.7,322.1z M40,322.6l-0.6-0.3
	c0.2,0,0.3,0,0.5,0.1c0.1,0.1,0.2,0.1,0.3,0.1C40.2,322.5,40.1,322.5,40,322.6z M144.8,333h-0.3l0.3-0.1l0.2,0.1H144.8z
	 M165.4,328.3l0.1,0.1h-0.3L165.4,328.3z M257.7,323.3c-1.4,0.7-2.7,1.3-4.1,1.7c-1.1,0.3-2.2,0.4-3.3,0.4c-0.4,0-0.6-0.4-0.4-0.4
	c1-0.3,2-0.6,3.1-0.8l4.9-0.8H257.7z M256.8,317.1c0.3,0,0.6,0.1,0.9,0.2c0.1,0.1-0.5,0.3-0.6,0.3c-0.3,0.1-0.7,0.1-1.1,0.1
	C255.9,317.7,256.3,317.4,256.8,317.1z"/>
<path fill="none" stroke="#000000" stroke-width="1.08" stroke-linecap="round" stroke-linejoin="round" d="M14.2,305.2l-4.2-1.4
	l-4.2-1.5 M354.3,276.5l-3.9,2.2l-4,2.1 M179.9,340.2c-4.1,0.2-8.3,0.2-12.4,0.4 M49.6,310.6c3.2,1.4,6.9,2.8,7.5,4.2 M250.2,313.5
	c-2.7,0.6-6.1,0.8-7.6,2.1c-0.5,0.4-0.2,0.8-0.3,1.1 M255.2,316.1c1.8-0.4,3.5-0.8,5.3-1.2l4.9-1.2 M199.3,327.8l-3.5,0.3l-3.5,0.2
	 M74,329.7c-0.2,1.1-3.9-0.1-5.8-0.4c-1.4-0.2-2.9-0.4-4.5-0.7c-1.5-0.3-3-0.8-4.5-1.4 M469.2,220.6c1-0.7,2.4-1.5,3-2.2
	c2.6-2.9,4.2-3.6,5.9-4.1 M78.6,317.2c-1.4-1.1-2.2-2.3-6.6-3.1 M14.6,298.6l-3.3-0.7 M138.7,337.3c-1.1-0.1-2.3-0.1-3.4-0.2
	l-3.4-0.3l-6.7-0.6 M177.6,338.3c-3,0.8-6.7,0.8-9.8,0.4c-2.9-0.3-5.2-0.1-7.6,0.1 M135.6,338.8l-2.8-0.2 M129.6,319.7l-3.6-0.4
	l-3.6-0.6l-7.1-1.2 M44,302.6l-1.9-0.7 M300.8,306.8c-2.7,1.1-5.3,2-7.9,3 M279.5,308.3c-1.6,0.4-3.2,0.9-4.9,1.3 M141.5,327.1
	l-3.3-0.1l-3.3-0.3l-6.6-0.5 M122.9,323.7c-0.1,0.4-0.2,0.8-0.3,1.3l-4.4-0.2 M103.8,322.4l-2.7-0.3l-2.7-0.4l-5.3-0.8
	c-3.6-0.5-7.1-1.2-10.7-1.8 M107.8,323.1c-1.1,0.7-4.5,0.2-6.7,0.2c-2.3,0.1-4.2,0.1-6.3,0.2 M316.3,293.9l-5.6,1.9 M206.1,330.3
	c-2.4,0.5-4.8,0.9-7.2,1.3 M339.3,284l-1,0.5c-3.5,1.4-3.9,2.7-5.7,4.1c0.5,0.1,1,0.1,1.4,0 M157.5,321.3l-4.8-0.3
	c-0.8-0.1-1.6-0.1-2.4-0.2l-2.4-0.2 M258.2,321.1c-3.3,0.9-6.6,1.6-9.9,2.4 M83.7,320.4l-1.2-0.5 M288.3,309.3l-7,1.7
	c-0.6,0.1-1.2,0.3-1.9,0.5c-2.4,1.1-4.9,2-7.5,2.6c-2.7,0.7-5.4,1.3-8,2.2c-3.5,1.2-4.1,1.6-4.1,2.4 M186.1,331.8l-5.9,0.1
	c-1,0.1-2,0.1-3,0h-2.9 M166.8,334.8c-1.6,0.1-3.3,0-5,0l-5-0.1 M19.2,303.1c-1.6-0.3-3.2-0.6-4.8-1.1c-2.7-0.7-3.5-0.6-1.9,0.8
	 M119.5,329.7c-1.2-1.2-2.8-1.6-6-1.4c-1,0.1-2,0.1-3,0.1 M144.2,331.3c-0.8-0.1-1.6-0.2-2.4-0.3c-1.6-0.1-3.2-0.1-4.8-0.2
	s-3.2-0.3-4.8-0.7c-1.6-0.4-4.3-0.3-6.5-0.3 M159.8,322.4c-2.8,0.9-5.8,1.3-8.8,1.3c-1.9-0.1-3.7,0.4-5.6,0.6
	c-0.6,0.1-1.5,0.1-2.3,0.1 M10.2,297.4c1.3,1.4,4.6,2.3,6.9,3.6 M121.2,333.9c1-0.8,3.7-0.1,5.8,0.1c0.3,0,1,0.4,0.8,0.6
	c-0.8,0.3-1.9,0.4-2.9,0.7 M176.8,337c-3.4-0.6-6.9-0.4-10.3,0.4 M266.1,323.1l-2.7,0.3l-2.7,0.3 M314.3,305.8l1.1,0.2 M146.9,319.9
	c1-0.5-0.6-0.6-1.7-0.7c-2.1-0.1-4.9-0.3-5,0.5c-0.1,0.6-0.7,0.8-1.6,1c-1.3,0.1-2.6,0.1-3.9-0.1 M218.1,323.6
	c-1.6,0.3-3.2,0.6-4.7,0.7c-1.5,0.2-3.1,0.2-4.6,0.2 M120.4,330.1c0.1,0.5,0.2,1,0.3,1.6l-4.2-0.2 M219.6,318.1l-4.6,0.8
	c-1.5,0.3-3.1,0.6-4.6,0.8 M175.5,327.9l3.2,0.6l3.1,0.4 M146.5,325.6c-2.9-0.1-5.4,0.1-4.7,1.1 M152.1,327.9l8.8,0.7 M74.4,316.4
	l-3.8-1.1 M334.4,286.3c-3.4,0.9-5.7,2.6-8.2,4.1 M227.7,330.3c-2.7,0.8-5.4,1.3-8.3,1.6c-2.9,0.3-5.7,0.6-8.5,1.1
	c-1.4,0.3-2.8,0.4-4.2,0.7 M49.9,307.6c-1.1,0.1-2.2,0.1-3.3,0.1 M157.9,331.6h-6.5l-6.5-0.2 M186.4,340.1l-4.4,0.2 M96.9,326.8
	c-2.5-0.7-5-1.2-7.5-1.7c-2.5-0.4-5-0.9-7.6-1.3 M223.2,319.6l3.7-0.7l1.9-0.4l1.9-0.4 M62.8,321.9c2.5,1.1,5.2,2,7.8,3 M68,321.8
	l7.8,2.2 M307.9,298.7l-2.8,1.7 M260.4,320.4c0.1-0.6,0.2-1.1,0.4-1.8l-4.4,1.1l-2.3,0.6l-2.3,0.6 M345.8,281.3
	c-2,1.6-1.8,2.2-1,2.7 M309.5,303.6l-3.2,1.3l-3.2,1.2 M47,304.8h-8.5 M188,322.3c-2.4,0.3-4.8,0.4-7.2,0.7 M144.7,325.9l6.7,0.9
	 M14.9,305.8l-2.7,0.5 M240,317.9c-2.9,0.1-5.8,0.1-8.7,0.1 M87.2,318.5l-6.8-0.8 M490.2,176.5l-2.5,3.6 M89,313.9l-6.8-1.2
	 M238.1,325.2l4.9-0.9c1.6-0.3,3.3-0.6,4.9-0.9l0.2,0.3l-1.6,0.6l-1.6,0.6l-3.3,1.2 M35.6,299.2l-5.1-1.9l-5-2.1 M364.9,271.3
	c-2.1,0.6-4.1,1.7-5.8,3.1 M185.3,327.7c-2.8-0.8-5.2,0.1-7.8,0.4 M323,296.6l3-1 M326.5,290.6c-2.2,0.9-4.4,1.7-6.5,2.6
	 M174.2,324.1c0.7-0.2,1.4-0.3,2.2-0.5c2.1-0.4,4-0.9,5.9,0c0.8,0.3,2.7,0.4,4.1,0.7 M211.8,331c2.2-0.1,4.2-0.3,6.4-0.5
	 M202.9,322.1c0.4,0.4,0.8,0.7,1.2,1c1.5,0.8,0,1.5-2.7,2.2 M279.2,306.1c-1.5,0.7-3.1,1.2-4.7,1.6s-3.2,0.8-4.8,1.3 M292.4,307.5
	c3.6-0.7,6.3-1.7,8.1-3.4 M81.8,315.4l-2.7-0.8l-2.7-0.9 M176.5,328.4l-5.7,0.5 M186.7,334.5c2,0,4-0.1,6-0.2 M261.5,318.6l5.3-1.1
	c1.8-0.3,3.5-0.7,5.3-1.1 M199.8,330c2.9-0.8,5.2-0.8,6.9-0.1 M110.7,329.5l-5.3,0.1 M322.5,293.8c-1.5,0.8-3.1,1.7-4.6,2.5
	 M112.6,333.6l4.5,1.4 M351,283.3c-1.4,1.5-3.9,2.3-6.1,3.3 M344.5,286.8l-2.9,3.4 M142.9,323.5c-1.8-0.1-3.6-0.1-5.4-0.2
	 M123.8,323.5h4c1.3,0.1,2.6,0.4,3.9,0.6l-2.9,0.6 M257.4,323.3l-2.6,0.8l-2.6,0.7 M256.9,311.9c1.8-0.2,3.5-0.3,5.2-0.6
	 M255.7,327.8l1.4,0.8 M73.8,317.7l-4.9-1.3 M155.7,337.5v1.4 M136.9,324h-4.9 M275.4,311.5l-1.1,1.7 M240,326.1l1.3,0.1 M243,321.7
	c1.6-0.2,3.1-0.4,4.7-0.7 M311.7,299.2l-3.9,2.2 M171.5,324.4l-4.4,0.7 M132.6,317.9l-4.6-0.4 M74.2,327.4c2.8-0.3,5.6,0.1,8.1,1.1
	 M125,330l-5-0.2 M87.6,328c1,0.6,1.9,1,2.9,1.5 M173.8,321.7l-3.9-0.2 M236.2,321.6c1.9,0.2,3.8,0.3,5.7,0.4 M322,295.9
	c-1.4,0.5-2.7,1.1-4,1.5 M187.2,321.3l-4.2,0.1 M32,299.7l5.1,1.6l2.5,0.8l2.5,0.7 M41.4,303.8c-1.6-0.4-3.1-0.9-2.9-0.2
	 M81.7,319.1c-1.4-0.2-2.8-0.3-4.2-0.6 M244.1,327.3c1.5-0.2,2.9-0.4,4.4-0.7 M134.3,333.8l0.3,1.2 M106.3,323.7
	c0.2,0.4,0.2,0.8-1.8,0.4 M303.3,302.8c-2.3,0.7-4.5,1.4-6.8,2 M72.5,320.9c1,1.2-2.7,0.2-3.7,0.4 M167.1,332.3
	c-2.1,0.1-4.2,0-6.3,0 M258.7,321.2l-1.2,1.5 M227.2,328.4c-2.4,0.7-4.9,1.4-7.4,1.9 M241.6,327.6l-2.5,1.6 M190.1,331.9l3.6-0.1
	c0.3,0.3-1.5,1.3,2.3,0.6 M125.7,321.1l0.5,2.2 M109.5,318c2.2,0.6,4.4,1.1,6.6,1.6 M102.9,335.4l0.6,1.1 M117.8,324.9
	c0.5,0.6,1.4,1.2,0.3,1.6 M219.2,331l0.8,0.7 M137.2,328.3l-3.9-0.4 M140.3,319.1c-1.2,0.1-2.5,0.1-3.7,0.1 M91,324.5l-0.3,0.8
	 M195.5,327.1l-3.1,0.4 M228.1,317.2l-5.4,0.6 M115.5,338.2c2.4,0,4.9,0.3,7.3,1 M195.1,330.3c-0.8,0.4-3.7,0.1-3.3,0.8
	 M153.3,326.5l-2.4,1.2 M40.7,304.8c-1.7-0.7-3.4-1.4-5.2-2.1 M317.1,298.8l-4.3,1.8 M114.8,317.4c-0.7-0.3-1.5-0.7-2.2-1.1
	 M152.6,336.3l0.3,0.6 M96.3,327.5l-1.6-0.3 M169.8,337.8l0.8,0.2 M105,336.7l-3.2-0.4 M264.5,319.9l0.3,0.2 M165.8,328.3l-0.7,0.2
	 M495.7,169.4l-0.3,0.7 M190.3,324.2l-0.7,0.2"/>
<path d="M484.3,176.2c0.4-0.2,0.8-0.3,1.2-0.4c0.1,0.3,0.3,0.8,0.2,1c-0.3,0.3-0.7,0.4-1.2,0.4c-0.3-0.1-0.6-0.4-1-0.6
	c-1.7,1.4-1.7,1.4-2.9,0.2l1.8-0.3c-0.3-0.4-0.6-0.8-0.8-0.8c-1.2-0.1-2.5,0.1-3.8,0.2c-1.2,0.3-2.3,0.8-3.5,1.3l0.1-0.4l-0.8-0.6
	c-0.1,0.3-0.1,0.6-0.1,0.9c0.1,0.6,0.3,1.2,0.5,2c0.6-0.4,1.1-0.8,1.6-1.2c0.5-0.3,1-0.6,1.5-0.8l0.2,0.4l-5.1,2.7l0.1,0.1l3.5-0.9
	c-0.5,1.2-3,1.9-4.8,1.5l0.1-1.2l-3.3,0.4l1.5,0.8l-2.2,0.9c0.2-0.9,0.3-1.5,0.4-2.2H467l-1.1,0.2c0.1-0.3,0.2-0.6,0.3-0.9
	c0.1-0.2,0.1-0.6,0.1-0.7c-1-0.4-0.5-1-0.1-1.6l-2.4,1.3l-0.4-0.4c0.4-0.4,0.9-0.8,1.4-1.2c0.5-0.3,1.3-0.2,1.7-0.6
	c0.6-0.5,1.2-0.7,1.7-0.2c0.3,0.4,0.7,0.9,0.9,1.4l0.6-0.2c0.2-0.8,0.1-1.7,0.5-2.1c0.7-0.6,1.6-1.4,2.8-1.1c0.4,0,0.8-0.1,1.1-0.2
	c0.8-0.3,1.6-0.4,2.4-0.6c1.4-0.1,2.3-0.8,3.1-1.8l-3.5,1.3l-0.4-0.5c-1.1,0.4-2.2,1.1-3.1,1.1c-1-0.1-1.9,0.3-2.6,0.9
	c-0.4,0.4-1,0.6-1.5,0.3c-1-0.4-1.6-0.1-2.4,0.4c-1.2,0.6-2.4,1.2-3.7,1.6c-0.1,0.1-0.3-0.2-0.5-0.3l-4.2,2l0.1,0.3
	c1-0.1,2-0.5,2.8-0.3c0.8,0.2,1.5,1,2.4,1.6c-0.6,0.3-1,0.7-1.4,0.7c-0.7-0.1-0.8,0.1-1.1,0.7c-0.6,1.1-2.4,1.2-3.4,0.5
	c-0.2-0.2-0.7-0.1-1.1-0.1c-0.7,0.1-1.4,0.2-2.1,0.3l-0.1-0.5l2.8-1l-0.1-0.3l-1.8-0.3c0.2-0.2,0.3-0.3,0.5-0.5
	c0.2-0.2,0.4-0.6,0.3-0.8c-0.1-0.2-0.5-0.5-0.6-0.4c-0.3,0.1-0.5,0.4-0.7,0.7c-0.2,0.2-0.6,0.5-0.8,0.7l-1.4-1.4
	c0.5-1.3,2-2.1,1.7-3.6l1.3-0.4l-0.1,0.4c0.7,0.2,1.4,0.4,2.1,0.4c0.1,0,0.5-0.5,0.5-0.6c-0.3-0.9,0.3-1.3,1.1-1.6
	c1-0.3,2.1-0.1,3-0.8c0.2-0.2,0.7,0,1.1,0c-0.3,1.3-2.7,1.4-2,3.2c0.3-0.3,0.5-0.7,0.8-0.9c0.6-0.5,1.2-0.9,1.8-1.3
	c0.2-0.1,0.5-0.1,0.6-0.3c1-1.1,2.4-1.2,3.5-0.4c0.3-0.4,0.5-0.9,0.8-1.4c0.2-0.3,0.8-0.6,0.8-0.9c0.1-0.3-0.5-0.7-0.8-1.1l1-0.6
	l0.8,0.6l1.7-1.9l-0.3-0.3c-0.5,0.1-0.9,0.3-1.4,0.4c-1,0.4-1.6-0.1-1.5-1l0.2-0.7l-0.3-0.2c-0.3,0.3-0.8,0.6-0.8,0.8
	c-0.1,1,0,1.9-0.1,2.9c-0.1,1.2-0.5,1.5-1.8,1.3c-1.4-0.2-2.8,0.1-3.9,0.9c-0.4,0.2-0.9,0.3-1.4,0.2c-0.3-0.1-0.6-0.1-1-0.2
	c0.1,0.3,0.3,0.5,0.4,0.8l-3.3,1.2l0.6-1l-5.9-0.6c0.1-0.3,0.1-0.6,0.1-0.8c-1.1,0.7-2,0.7-3.1,0c-0.8-0.6-1.8-0.8-2.8-0.6
	c-0.8,0.2-1.8,0.4-2.7,0.3c-0.6,0-1.1,0.1-1.8,0.1c0.1,0.4,0.1,0.7,0.1,0.9c-1.9,0.6-1.9,0.6-2.1,1.6c1.2,0.1,2.8-0.6,3.2-1.5
	c0.8,0.7,0.8,1.3,0,2.2c0-0.3,0-0.5-0.1-0.8l-0.3-0.1l-0.8,1.1l1.5,1.1c0.2-0.4,0.5-0.8,0.7-1.1c0.2-0.2,0.5-0.3,0.7-0.3
	c0.1,0,0.3,0.3,0.3,0.4c-0.1,0.9-1,1.6-1.9,1.4c-0.2,0-0.4-0.1-0.6-0.2c-0.3-0.1-0.7-0.2-1.1-0.1c-0.6,0.1-1.2,0.2-1.8,0.4
	c-1.4,0.5-3,0.7-3.2,2.5c0,0.2-0.3,0.4-0.5,0.6c-0.5,0.4-0.8,0.9-1.3,1.3c0.6,0.1,1.2,0.2,1.8,0.4c0.5,0.2,1,0.4,1.5,0.6
	c-0.2,0.4-0.5,0.7-0.8,1.1c-0.6,0.6-0.6,1,0.1,1.4c0.1-1.1,1.1-1.8,2.2-1.8h0.1c-0.1,0.3-0.2,0.7-0.3,1.1l1.1-0.1l0.2,0.2
	c-2,0.2-2.4,2.1-4,2.8c0.3-0.1,0.6-0.2,0.8-0.3c0.3-0.1,0.7-0.1,1.1-0.2l-0.1,1c-0.1,1.2-0.3,2.4-0.4,3.6c0,0.2,0.2,0.5,0.3,0.5
	c1-0.1,1.9,1.1,2.8,0.1l0.9,0.7l0.8,0.6c0.2,0.2,0.5,0.6,0.7,0.5c0.4-0.1,0.8-0.3,1.1-0.6c0.7-1.2,0.7-1.2,2.2-0.6
	c0.5,0.2,1.1,0.3,1.1-0.4c-0.1-0.8,0.5-1,1-1.4c1.1-0.9,2.2-1.9,3.3-2.8c0.3-0.3,0.6-0.5,1-0.7c0.1-0.1,0.5,0.3,0.5,0.3
	c-0.2,0.4-0.5,0.7-0.6,1.1c-0.2,0.3-0.3,0.7-0.3,1c0.1,0.3,0.2,0.7,0.3,0.9c2.7-0.6,5.3-1.1,6.8-3.7c1.1-0.1,2.3-0.1,3.4-0.1
	c0.2,0,0.5-0.1,0.5-0.2c0.4-1,1.1-0.6,1.8-0.5c0.7,0.1,1.4,0.2,2.2,0.3c0.2,0,0.6-0.2,0.6-0.3c0-1.2,1-1.4,2-1.7
	c-0.1,1.1,0.6,0.7,1,0.6h0.1c0.2,0.2,0.5,0.6,0.7,0.6c0.6-0.1,1.1-0.2,1.6-0.4c-0.2-0.3-0.3-0.7-0.5-0.9c0.9-1.1,2.7,0.5,3.3-1
	c1.1,0.1,2.3,0.1,3.4-0.1c1.1-0.2,2.2-0.6,3.2-0.9c0.5-0.2,0.8-0.5,1.2-0.8l-1-0.8c0.7-1.4,3.6-2.2,5.4-1.3c-1.1,0.4-2,0.8-3,1.1
	l0.1,0.3c0.3-0.1,0.6-0.1,0.9-0.1c1.5-0.3,3-0.7,4.5-0.9c2-0.3,4.2,0.1,6.1-1.2c0.3-0.2,0.7-0.3,1.1-0.3c1.2-0.1,2.4-0.2,3.6-0.4
	c0.6-0.1,1.2-0.2,1.8-0.4l0.8-0.2l0.2-0.1h0.2c0.2-0.1,0.5,0.2,0.6,0.2c0.2,0,0.1,0.2,0.7-0.9c0.1-0.2,0.2-0.3,0.2-0.1
	c-0.1,0.7-0.2,1.1,0.2,0.6c0.1-0.1,0.2-0.1,0.2-0.2c-0.1,0.2-0.2,0.4-0.2,0.7c-0.1,0.2,0.2,0.2-0.1,0.6s-0.2,0.4-0.3,0.6
	c0,0.1,0,0.1-0.1,0.2c-0.1,0.7-0.1,1.3-0.1,2.1c-0.1,1.3-0.2,2.7-0.2,4.1c0.1,1.7-0.7,3.4-0.6,5.2c0.1,3.2,0.3,6.4,0.6,9.6
	c0.3,3.4,0.8,6.7,1,10.1c0.1,1.8-0.2,3.6-0.1,5.4c0.1,2.1,1,4.2-0.2,6.4c-0.6,1.1-0.1,2.6-1.1,3.6c-0.1,0.1,0.1,0.2,0.1,0.4l1.5-0.4
	c0.3,1.7,0.6,3.2,0.8,4.8c0.2,1.3,0.1,2.7,0.3,3.9c0.3,1.4,0.8,2.8,1.4,4.2c0.8,2,1,2,2,0.9c0.8,0.8,0.7,1.8,0.7,2.8
	c0,0.3,0.4,0.9,0.6,0.9c0.6,0,1.5-0.1,1.6-0.4c0.2-0.9,0.7-1.7,1.4-2.3c1.2-1.2,2.3-2.8,3.6-3.9c0.8-0.7,1.8-1.3,2.9-1.6
	c0.4-0.1,1,0.7,1.5,1.1c0.1,0.1,0.1,0,0.1,0c0.1-0.3,0.3-0.7,0.5-1.1c0.2-0.3,0.7-0.7,0.6-0.9c-0.2-0.4-0.5-0.8-0.8-0.9
	c-0.8-0.3-1.5-1.6-1-2.4c1.1-1.7,1.2-3.8,2.3-5.6c1-1.6,1.2-3.7,1.4-5.7c0.2-1.8,1-3.8-0.3-5.6V212c-0.1-2.6-0.5-5.3-0.1-7.9
	c0.3-3.3,0.4-6.6,0.2-10c-0.1-1.6-0.1-3.3,0-4.9l0.2-7.7c0-0.7-0.2-1.1-0.8-1.3c-0.5-0.2-0.9-0.5-1.3-0.9l1-0.5l-0.5-0.8l-0.2-0.4
	c-0.1-0.1-0.1-0.1-0.1-0.2l-0.1-0.3l0.3-0.3l0.3,0.7l0.3,0.3l0.7,0.9c0.2-0.3,0.3-0.7,0.5-1.1c0.1-0.3,0.1-0.7,0.1-1
	c0-0.4,0.1-0.8,0.1-1.2c0.1-1.3-0.1-2.6-0.5-3.9c-0.1-0.6-0.1-1.2,0.1-1.7c0.6-1.6,0.7-4.1,0.1-5.5c-0.2,1.9-0.7,2.9-1.6,3.2v-0.1
	l0.1,1.8c-0.4-0.2-0.7-0.6-1-0.6s-0.6,0.3-0.8,1.5c-0.2-0.4-0.4-0.8-0.6-1.3c-0.8,1.3-1.5,1.9-1.7,0.4c0-0.2-0.2-0.2-0.2-0.3
	c-0.5-0.6-1-0.9-1.5-1.4c-0.2-0.2,0-0.8,0.1-1.2l0.2-0.2c0.1,0.3,0.1,0.6,0.2,0.8l0.3-0.2c0.1-0.6,0.1-1.2,0.3-1.8
	c0.3-0.8,1.2-2.5,1.4-2.4c1,0.2,2.5-0.7,2.8,1.5c0.1,0.4,0.2,0.8,0.5,1.2c0.5-1.1,0.9-1.9,1.3-2.9c-1.4-0.6-1.5-1-1.1-3.4
	c0.1-0.5,0.1-0.9,0.2-1.4c0.5-1.6,0.4-2.4-0.1-2.9c-0.2-0.2-0.3-1-0.2-1.7c0.1-0.4,0.2-0.7,0.2-1.1c-1.4,0-3.1,0.4-4.9,1
	c-1.8,0.6-3.5,1.1-5.3,1.5c-0.4,0.7-0.9,1.3-1.5,1.8c-0.7,0.6-1.3,0.9-1.7,0.8c-1.3-0.2-2.6-0.4-4-0.7c-0.6-0.2-1.1-0.3-1.6-0.6
	l2.7-1.4c0.1-0.1,0.1-0.2,0.2-0.2c-1.5-0.3-2.9,0.3-3.9,1.4c-0.5,0.6-0.5,1.3-1.8,1.3c-0.7-0.1-1.4-0.2-2.1-0.3h0.1l-1.5,0.3
	l-0.2,0.1h-0.1l-0.2,0.1l-0.5,0.1c0.1,0.4,0.2,0.7,0.3,1.1c-0.5-0.1-0.9-0.1-1.4,0c-0.5,0-1,0.2-1.4,0.4c-0.8,0.7-1.4,0.4-1.9-0.2
	l1.6-1.2c-0.8,0.1-1.8,0.2-2.5,0.3c-1.1,0.2-2.2,0.2-3.2,0.4c-0.5,0.2-0.9,0.4-1.3,0.7c0.5,0.3,0.7,0.5,1,0.4
	c1.5-0.1,2.8-0.3,4.2,0.4c0.7,0.3,1.1,0.6,1.1,1.2c-0.1,0.8,0.5,0.8,1,0.6c0.6-0.2,1.1-0.4,1.7-0.7c0.6-0.2,1-0.5,0.3-0.9
	c-0.2-0.1-0.3-0.3-0.5-0.4c0.6-0.5,1.2-0.8,1.9-1l0.2-0.1h1c0.5,0,1,0.1,1.4,0.2c1.1,0.3,0.8,1.2-0.2,1.9c-0.3,0.2-0.7,0.4-1,0.7
	c-0.1,0.1-0.2,0.2-0.2,0.3c0.1,0.1,0.1,0.3,0.4,0.4c1.2,0.6,2.4,1.3,3.6,2.1c0.1,0.1,0,0.5-0.1,0.7c-0.2,0.2-0.5,0.3-0.7,0.4
	l0.1,0.2l1.6-0.3v0.3l-1.7,0.9c0.1,0.7,0.2,1.4,0.3,2.2c0,0.1-0.1,0.2-0.1,0.3l-0.8,0.7c-0.2,0.1-0.3,0.3-0.5,0.4l-0.6,0.4
	c-0.5,0.3-1.4,0.6-1.5,1c-0.2,0.7-0.5,0.8-1.2,0.9c-1.3,0.2-2.7,0.3-3.8,0.7c-1,0.4-1.2,0.5-1.3-0.5c-0.1-0.3-0.3-0.6-0.7-0.7
	c-0.3-0.1-0.6,0.3-0.9,0.5c-0.3,0.2-0.6,0.6-1,0.7c-1.1,0.2-2.2,0.3-3.3,0.6c-0.3,0.1-0.7,0.3-1,0.6c-0.5,0.3-0.8,0.9-1.3,1.1
	c-1.1,0.3-1.6,0.8-1.6,1.8C483.8,176.5,484.1,176.3,484.3,176.2L484.3,176.2z M439.4,188.2L439.4,188.2l-0.3-0.2l-0.1,0.1l0.1-0.1
	L439.4,188.2z M517.2,158.5c-0.8,0.4-1.7,0.8-2.4,1.2c-0.6,0.3-1.1,0.4-1.6,0.7c-0.4,0.2-0.8,0.3-1.2,0.4c-0.4-0.1-0.6-0.4-0.9-0.6
	c0.6-0.4,1.2-0.8,1.9-1.1c0.5-0.2,1.1-0.4,1.6-0.5c0.6-0.1,1.1-0.1,1.6-0.1c0.8-0.2,1.6-0.6,2.3-1.2c0,0,0.3,0.2,0.4,0.4l0.8-0.4
	l-0.1,0.1l-0.7,0.3C518.2,157.9,517.7,158.2,517.2,158.5L517.2,158.5z M507.8,165.8l1-0.6c0-0.3-0.1-0.6-0.1-0.9
	c0.8-0.3,1.8-0.7,2.7-0.9c0.2-0.1,0.2,0.4,0.1,0.7c-0.1,0.4-0.5,1.1-0.7,1.6c-0.3,0.6-0.5,1.2-0.9,2.1c-0.2-0.1-0.5-0.1-0.4-0.2
	c0.5-1.2-0.1-0.9-0.7-0.7c-0.2,0.1-0.5,0.1-0.7,0c-0.2,0.3-0.3,0.7-0.1,1c0.1,0.3,0.1,0.6-0.5,1.2c0.2,0.2,0.3,0.3,0.5,0.6l-0.1,0.2
	l-2.7,1.2c0.1-0.7,0.3-1.3,0.9-1.6c0.3-0.2,0.6-0.5,0.7-0.8c0.1-0.2,0.2-0.8,0.1-0.8c-0.3-0.1-0.6-0.1-0.8,0.1
	c-0.8,0.7-1.4,1.2-2.2,0.9l1.1-0.6c-0.1-0.2-0.2-0.3-0.2-0.4c-0.4-1.3-0.5-1.3,1-2.3c0.5-0.3,1-0.9,1.5-1.2c0.8-0.4,1-0.2,0.6,0.7
	c-0.1,0.4-0.2,0.7-0.2,1.1L507.8,165.8L507.8,165.8z M511.5,159c-0.6,0.2-1.1,0.5-1.5,0.8c-0.8,1.2-1.5,2-3,2.1l0.1,0.4l2.2-0.5
	l0.1,0.3c-0.7,0.5-1.3,1.2-1.9,1.4c-1.3,0.5-2.3,0.3-2.5-1.2l0.7-0.7c-0.2-0.2-0.5-0.3-0.8-0.6c1.3-1.1,2.6-2,4-2.8
	c2.7-1.6,3.4-1.6,4.1,0.2C512.5,158.6,512,158.7,511.5,159L511.5,159z M520.7,178.5c-0.5-0.1-0.8-0.3-1.1-0.7
	c-0.1-0.4,0.1-0.8,0.3-1.2c0.5-0.2,1.1-0.1,1.6,0.1c0.2,0.1,0.5,0.3,0.6,0.6c0.1,0.1,0.1,0.1,0.1,0.2l0.2,0.2l0.3,0.3
	C522.3,179,521.4,178.5,520.7,178.5L520.7,178.5z M523.8,175.2c-0.3-0.3-0.6-0.8-0.7-1.3c0.1-0.5,0.2-0.9,0.5-1.3l0.9-1.9
	c0.2,1.7,0.5,3.5,0.8,5.4C524.7,175.9,524.2,175.6,523.8,175.2L523.8,175.2z M520.5,153.9c0,0.8,0.6,1.2,0.4,2.2v0.1l-3.1,0.3
	c1.8-1.2,1.9-1.2,0.8-1.8C519.5,153.7,520.4,152.8,520.5,153.9z M519.9,183.1c-0.2-1.2-1.4-2.2-0.5-3.7
	C520.3,180.1,520.6,182.2,519.9,183.1z M520.2,161.3l-1.4,1l0.6-2.5l0.6-0.6L520.2,161.3L520.2,161.3z M447.1,174
	c0.1,0.6-0.3,1-0.8,1.1h-0.2c-0.2,0-0.4-0.1-0.5-0.2c0-0.2,0.1-0.4,0.2-0.6c0.2-0.3,0.5-0.7,1-1.2
	C446.9,173.4,447.1,173.6,447.1,174z M512.8,165.8l-1.4,0.7l1.4-2.4C512.9,164.6,512.9,165.2,512.8,165.8z M452.4,183.4l2.4-0.8
	l0.1,0.3C454.3,184,453.8,184.1,452.4,183.4z M525.5,183.1c-0.5-0.2-1.2-0.2-1.2-0.4c-0.1-0.6-0.2-1.2-0.2-1.8h0.3L525.5,183.1z
	 M514.9,164.5c0.3-0.2,0.6-0.2,0.8-0.1c-0.1,0.4-0.3,0.8-0.5,1.1c-0.4,0.1-0.7,0.1-1.1,0.2C514.3,165.3,514.6,164.9,514.9,164.5
	L514.9,164.5z M454.9,187.9l-0.2-0.4c0.7-0.8,1.8-0.8,2.7-1.1l0.1,0.2L454.9,187.9z M439.4,186.6c-0.1,0.1-0.6-0.2-0.6-0.3
	c0.1-0.3,0.3-0.6,0.5-0.8c0.1-0.1,0.5,0,1.1,0.1C440,185.9,439.7,186.3,439.4,186.6L439.4,186.6z M446.5,177.7
	c0.7-0.9,1.2-0.9,2.4,0.3L446.5,177.7z M517.6,165.4c-0.6-0.1-0.5-0.6-0.2-1.1c0.3-0.5,0.5-1.1,0.6-1.6l0.5-0.3
	C518.2,163.3,517.9,164.2,517.6,165.4L517.6,165.4z M503.9,161.3c-1.2,0.4-1.5-0.1-1.5-1C503.5,160.2,504.3,160.2,503.9,161.3z
	 M515.4,157.6c-0.3,0.1-0.5-0.2-0.7-0.3c0.3-0.3,0.6-0.5,0.9-0.7c0.5-0.1,1.1-0.2,1.6-0.2C516.6,156.8,516,157.2,515.4,157.6z
	 M512.3,161.8l-0.4,0.6c-0.6-0.1-1.2-0.1-1.8-0.2l0.3-0.4C511,161.7,511.6,161.7,512.3,161.8L512.3,161.8z M500.1,175.2
	c0.2-1.1,0.4-1.2,1.8-0.9L500.1,175.2z M479.1,178.5c-0.1-0.2-0.2-0.4-0.2-0.6c0.3-0.2,0.7-0.3,1-0.4l0.2,0.4L479.1,178.5
	L479.1,178.5z M521.3,179.5l0.4,0.1l-0.2,1.7l-0.5-0.1L521.3,179.5L521.3,179.5z M447.3,175.8c0.9-0.3,1.5-0.6,1.9,0.1l-0.2,0.4
	L447.3,175.8L447.3,175.8z M453.3,173.4c-0.2,0-0.3-0.1-0.5-0.2c0.1-0.3,0.2-0.6,0.3-0.9l0.6,0.2
	C453.6,172.9,453.5,173.1,453.3,173.4z M521.9,160l-0.4,0.6l-0.4-0.8l0.4-0.6L521.9,160z M442.7,181c0,0-0.1-0.2-0.1-0.3l0.8-0.2
	l0.1,0.4C443.3,180.9,443,181,442.7,181z M524.9,185.8l0.3,0.1l-0.1,0.9l-0.4-0.1L524.9,185.8L524.9,185.8z M514.1,163.5l0.3-0.5
	l1-0.4l-0.3,0.5L514.1,163.5L514.1,163.5z M458.8,183l0.2,0.3l-0.7,0.6l-0.3-0.3L458.8,183z M450.2,177.1c-0.2-0.1-0.3-0.2-0.5-0.3
	c0,0,0.1-0.3,0.2-0.3c0.2,0,0.5,0.1,0.7,0.1C450.3,176.9,450.2,177.1,450.2,177.1L450.2,177.1z M457.2,182.9c0,0.2-0.1,0.3-0.1,0.4
	c-0.1,0-0.3-0.1-0.3-0.1c0-0.3,0-0.6,0.1-0.8C457,182.6,457.2,182.8,457.2,182.9L457.2,182.9z M515.2,171.2c0.1-0.1,0.2,0,0.3,0.1
	c-0.1,0.1-0.1,0.3-0.2,0.3c-0.1,0.1-0.2,0-0.5-0.1C514.9,171.4,515,171.2,515.2,171.2L515.2,171.2z M524,194.1l0.3-0.1l0.2,0.7h-0.4
	L524,194.1L524,194.1z M439.4,180.9l-0.1-0.1l0.3-0.3l0.2,0.1L439.4,180.9L439.4,180.9z M514.4,170.4c0-0.1,0.1-0.2,0.2-0.3
	c0.1,0,0.2,0,0.2,0.1c-0.1,0.2-0.1,0.3-0.2,0.4C514.5,170.5,514.4,170.5,514.4,170.4L514.4,170.4z M436.3,179.6l0.1,0.1l-0.5,0.4
	l-0.1-0.1L436.3,179.6z M517,171l0.2-0.2c0.1,0.1,0.1,0.2,0.1,0.3l-0.2,0.2C517,171.2,517,171.1,517,171z M445,172.9v0.1l-0.6,0.2
	V173L445,172.9z M460.9,183c0-0.1,0.1-0.2,0.1-0.2c0.1,0,0.2,0.1,0.2,0.1L461,183L460.9,183L460.9,183z M522.3,160.1
	c0-0.1,0-0.2,0.1-0.3c0.1,0,0.1-0.1,0.2,0c0,0.1,0,0.2-0.1,0.3C522.4,160.1,522.3,160.1,522.3,160.1z M517.3,178.9
	c-0.1,0-0.1-0.1-0.2-0.1s0.1-0.1,0.1-0.2l0.2,0.1L517.3,178.9z M467.5,175.1c0-0.1,0.1-0.1,0.1-0.2h0.1v0.2H467.5z M506.1,222
	L506.1,222l0.1-0.1l0.1,0.1L506.1,222L506.1,222z M489.3,178l-0.1-0.1c0,0,0-0.1,0.1-0.1L489.3,178L489.3,178z M492.2,174.1
	L492.2,174.1L492.2,174.1C492.3,174.1,492.3,174.1,492.2,174.1L492.2,174.1z"/>
<path d="M475.6,161.9c0.7-0.1,1.3,0.6,1,1.1c-0.3,0.6-0.8,1.1-1.4,1.4c-0.8,0.6-1.5,1-1.7,2.1c0.2,0,0.5,0.1,0.5,0
	c1.2-1,2.4-2,3.6-3c0.1-0.1,0.1-0.3,0.2-0.4c0.1-0.1,0.5-0.2,0.6-0.2c0.8,0.3,2.1,0.3,2.1,1.4c0.5,0.2,1.1,0.2,1.2,0.4
	c0.4,0.6,0.8,0.8,1.5,0.4c0.6-0.4,0.4-0.9,0-1.4c-0.2-0.3-0.3-0.7-0.4-1.1c0.5-0.1,1-0.2,1.4-0.2c0.5,0.1,1,0.2,1.4,0.3l0.1-0.2
	c-0.3-0.3-0.6-0.6-1-1l1-1c-0.9,0.1-1.6,0.1-2.4,0.3c-0.2,0.1-0.5,0.4-0.7,0.6c-0.3,0.3-0.5,0.8-0.8,0.9c-0.2,0.1-0.6-0.4-1-0.6
	c-0.7,0.1-1.6,0.4-2.3,0.2c-0.7-0.2-1.1-1-1.6-1.5c-0.6,0.7-2.8,1.4-3.5,0.9c-1.1-0.8-2.2,0-3.2,0.2c-0.2,0.1-0.3,0.6-0.4,0.9
	c1.4,0.3,0.5,0.9-0.1,1.7c0.7-0.2,1.2-0.2,1.4-0.4c0.8-1,1.3-0.7,1.9,0.1c0.8-0.3,1.6-0.7,1.2-1.7
	C474.8,162.1,475.2,162,475.6,161.9L475.6,161.9z M472,161.9l-0.1-0.2l0.6-0.3l0.1,0.1L472,161.9L472,161.9z M482.3,168.2l11-2.6
	c0,0.2,0,0.5,0.1,0.8c1.1,0.3,1.8,0,2-1.3c0.3,0.1,0.6,0.5,0.7,0.4c0.6-0.1,1.2-0.3,1.8-0.6c0.2-0.2,0.2-0.6,0.1-0.8
	c-0.7-0.8-1.2-2.1-2.7-0.7h-0.1c-1.4-0.2-2.5,0.5-3.7,0.9c-0.5,0.2-0.7,0.7-1.1,0.9c-0.3,0.2-0.6,0.3-0.9,0.4
	c-0.4-1-1.1-0.3-1.8-0.2c-0.3,0-0.8,0-0.9-0.2c-0.5-0.6-0.8-0.3-1.4-0.1c-0.3,0.2-0.6,0.4-1,0.5c-1,0.2-1.5,0.5-1.1,1.4l-1.1,0.8
	L482.3,168.2L482.3,168.2z M485.4,166.7l-0.1-0.2l0.5-0.3l0.1,0.2L485.4,166.7z M476.5,169.3c0.8-0.2,1.5-0.8,2.4-0.3
	c0.2,0.1,0.7-0.2,1-0.4c0.1-0.1,0.1-0.4,0.1-0.4c-0.3-0.2-0.8-0.2-1.2-0.2c-1.7,0.3-1.7,0.4-1.9-1.1l-1.8,0.6l-0.9-0.7
	c-0.3,0.3-0.7,0.6-0.8,0.8c-0.3,1.4-1.2,2.1-2.7,2.3c-0.2,0.1-0.4,0.2-0.6,0.3l0.1,0.2l2.3-0.4l-0.5,1.1l1.3,0.2v-0.9
	C474.5,170,475.4,169.6,476.5,169.3L476.5,169.3z M474.1,168.4l0.1-0.4l1.5,0.1l-0.1,0.4L474.1,168.4z"/>
<path d="M491.5,169.2l1.7-1.3l-1.6,0.2c0.1-0.3-0.1-0.7,0.1-0.8c0.3-0.2,0.9-0.4,1.1-0.3c0.8,0.4,1.5,0.2,2.3-0.1
	c0.6-0.2,0.9,0,1,0.6c0.2,0.6,0.5,1.2,0.8,1.7c-1,1.1-2.6,1.2-4.2,1.4l-0.2-0.3l1.6-0.9l-0.1-0.4c-0.4,0-0.7,0-1.1,0.1
	c-0.4,0.2-0.8,0.3-1.1,0.6L491.5,169.2L491.5,169.2z M480.2,174.4l2.4-0.9l-0.6-0.9c1.6-1.1,2.6,0.7,4,0.2l-0.1,0.3
	c-0.6,0.6-1.2,1.1-1.9,1.7c-0.1,0.1-0.5,0.1-0.5,0.1c-0.7-1-1.6-0.4-2.4-0.2c-0.3,0.1-0.6,0.1-0.8,0V174.4z M464.8,164.1l3.5-0.4
	l0.1,0.4c-0.6,0.1-1.1,0.3-1.6,0.4c-0.9,0.2-1.9,0.4-2.8,0.4c-0.5,0-0.9-0.6-1.4-0.8c0.4-0.3,0.8-0.4,1.2-0.6
	C464.1,163.5,465,163.1,464.8,164.1L464.8,164.1z M500.5,169c-0.5,1.1-1.4,1.4-2.5,1.7c-0.9,0.3-1.8,0.6-2.6,1
	c-0.3,0.1-0.6,0.2-1,0.3c-0.1,0-0.3-0.3-0.2-0.4c0.2-0.2,0.5-0.4,0.8-0.6c1.1-0.4,2.2-0.9,3.3-1.4
	C499.1,170.2,499.8,169.3,500.5,169L500.5,169z M491.1,163.4l-0.6-2.9l0.3-0.2c0.5,0.6,0.8,1.1,1.1,1.8
	C492.2,162.6,491.8,163.2,491.1,163.4C491.2,163.4,491.1,163.4,491.1,163.4L491.1,163.4z M436.5,171.3l3.3-0.2l-1,1.4l-2.3-0.9
	V171.3z M470.2,178.9c0-1.3,1.2-1.2,2.3-1.8c-0.1,0.9-0.2,1.6-0.2,2.2h-0.2c-0.2-0.3-0.3-0.8-0.6-0.8
	C471.2,178.4,470.8,178.7,470.2,178.9L470.2,178.9z M519.1,151l5.1-1.5c-2.8,2.1-3.6,2.3-5.4,1.8L519.1,151z M499.7,167.3
	c0.1,1.5,0.1,1.5-1.6,1.5C498,167.7,498.5,167.2,499.7,167.3z M484.3,170.1l3.5-0.4c-1.2,1-2.3,1.2-3.4,0.8L484.3,170.1z
	 M524.8,156.4l1.5-2c-0.1,1.2-0.1,2.3-0.2,3.5c0,0.1-0.4,0.6-0.5,0.6C525.4,157.8,525.1,157.1,524.8,156.4L524.8,156.4z M512,152.8
	c0.5-0.2,0.9-0.3,1.4-0.4c0.5,0.1,1,0.2,1.5,0.4l-0.1,0.1l-0.2,0.2c-0.1,0.1-0.3,0.2-0.5,0.3c-0.6,0-1.3,0-1.9-0.1
	C512,153.3,512.1,153.1,512,152.8z M456.5,167.5c-0.6,0.7-1.4,0.8-2.3,0.5l2.2-0.8L456.5,167.5L456.5,167.5z M484.6,164.4
	c0.7-1.2,1.5-0.8,2.3-0.8c-0.1,0.2-0.1,0.7-0.2,0.7C485.9,164.4,485.2,164.4,484.6,164.4L484.6,164.4z M493.1,162.6l2.7-0.7
	C495.4,163,494.3,163.2,493.1,162.6z M464.7,166.1c-0.5,0.6-1.2,0.7-1.9,0.3c-0.1-0.1-0.1-0.3-0.1-0.6l2-0.2V166.1L464.7,166.1z
	 M480.1,171.7l2.4-0.6C481.8,172.5,481.3,172.6,480.1,171.7z M480,164.7l-0.7,1.1l-0.6-0.4l0.8-0.9L480,164.7z M489.3,169.5
	c0.4,0,0.8,0.1,1.2,0.2c0.2,0.1,0.3,0.6,0.4,0.8l-0.9-0.4l-0.7-0.3L489.3,169.5L489.3,169.5z M433.2,182.5l0.6-0.8l0.7,0.4l-0.8,0.7
	L433.2,182.5z M500.3,156.5c0.6-1.2,1.1-1.4,2.7-1l-2.8,1H500.3z M463,169.5l1.4-0.2l0.1,0.4l-1.4,0.4L463,169.5z M490.2,168.4
	l-0.9,0.6l-0.3-0.3l0.9-0.7L490.2,168.4z M490.2,172.5l-1.7,0.2v-0.4l1.7-0.2V172.5z M485.6,159.8l-1.3,0.2l-0.1-0.4l1.4-0.3V159.8z
	 M435,178l-0.7,1.1l-0.4-0.2l0.6-1.1L435,178z M480.6,160.5c0.4,0,0.8,0,1.2,0.1v0.4h-1.2L480.6,160.5L480.6,160.5z M497.6,156.8
	l-1.4,0.1l-0.1-0.4l1.4-0.2L497.6,156.8z M485,169.5c-0.3,0.1-0.6,0.1-1,0.2c-0.1-0.1-0.1-0.3-0.1-0.4c0.3-0.1,0.6-0.1,1-0.2
	L485,169.5z M520.9,167.3l-0.1,1.4l-0.5,0.2l0.1-1.4L520.9,167.3z M522,164.6c0.2,0.3,0.4,0.7,0.6,1l-0.3,0.6
	c-0.2-0.3-0.5-0.7-0.6-1L522,164.6L522,164.6z M458.7,168.8l-1,0.2l-0.1-0.3l1-0.2L458.7,168.8z M438.4,175.4l-0.6,0.6l-0.3-0.3
	l0.6-0.5L438.4,175.4z M468.5,162l-1.1,0.2l-0.1-0.3l1.1-0.3L468.5,162z M488.6,160.6l0.6,0.2c-0.1,0.2-0.2,0.4-0.3,0.5
	c-0.2,0-0.4-0.1-0.5-0.2C488.4,161,488.5,160.8,488.6,160.6L488.6,160.6z M499.2,165.7l-1,0.3l-0.1-0.3l1-0.3L499.2,165.7z
	 M500.4,159.5c-0.3,0.3-0.4,0.6-0.5,0.6h-0.5L499,160c0.1-0.1,0.1-0.4,0.2-0.4c0.2-0.1,0.3-0.1,0.5-0.1H500.4L500.4,159.5z
	 M454.8,165.9l1,0.1l-0.1,0.3l-1-0.1L454.8,165.9z M471.7,165.7l1-0.4l0.1,0.2l-1,0.4L471.7,165.7z M454.9,170.7l-1.2,0.1v-0.3
	l1.2-0.1V170.7z M500,165.7l0.7,0.3l-0.1,0.3c-0.2,0-0.5-0.1-0.7-0.1L500,165.7z M438.7,174.2l0.7-0.2v0.4l-0.7,0.1L438.7,174.2z
	 M480,170.4c-0.2-0.1-0.5-0.2-0.5-0.3c0-0.2,0.1-0.3,0.2-0.4c0.2,0,0.3,0,0.4,0.1C480.3,170,480.1,170.1,480,170.4L480,170.4z
	 M483.2,169.6c-0.5-0.4-0.6-0.4-0.7-0.6c-0.1-0.2,0.2-0.3,0.2-0.3c0.2,0.1,0.3,0.1,0.4,0.2C483.3,169.1,483.2,169.2,483.2,169.6z
	 M460.6,163.9l-0.8,0.2l-0.1-0.3l0.8-0.2L460.6,163.9z M435.8,176l0.7-0.3l0.1,0.2l-0.8,0.3L435.8,176z M458.8,176.9l-0.7,0.4
	l-0.2-0.3l0.7-0.4L458.8,176.9z M487.2,160.3c0.2-0.1,0.4-0.2,0.6-0.2c0.1,0.1,0.1,0.2,0.1,0.2c-0.2,0.1-0.4,0.2-0.6,0.3
	L487.2,160.3z M456.1,176.1l0.5-0.3l0.2,0.2l-0.5,0.4L456.1,176.1z M525.5,159.6c-0.1,0.2-0.1,0.4-0.2,0.6c-0.1,0.1-0.2-0.1-0.3-0.1
	l0.2-0.5C525.2,159.5,525.4,159.6,525.5,159.6z M458.7,179.4c0.2,0.1,0.5,0.1,0.5,0.2c0,0.2,0,0.3-0.1,0.4c-0.1,0.1-0.3,0-0.4-0.1
	C458.6,179.8,458.6,179.5,458.7,179.4L458.7,179.4z M497.3,166.9c0.2,0.1,0.4,0.1,0.4,0.2c0,0.1-0.1,0.2-0.2,0.3
	c-0.1,0-0.3,0-0.3-0.1C497.1,167.3,497.3,167.1,497.3,166.9L497.3,166.9z M489.3,163c-0.1,0.1-0.2,0.2-0.2,0.2
	c-0.1-0.1-0.2-0.1-0.3-0.2c0.1-0.1,0.2-0.2,0.2-0.2C489.1,162.9,489.2,163,489.3,163L489.3,163z M484.3,178.4h0.3l-0.1,0.3
	c-0.1,0-0.2-0.1-0.3-0.1C484.2,178.6,484.3,178.5,484.3,178.4L484.3,178.4z M466,163c-0.1-0.1-0.3-0.1-0.3-0.1c0-0.1,0-0.2,0.1-0.2
	c0.1,0,0.2,0,0.3,0.1C466.1,162.7,466,162.9,466,163L466,163z M459.4,179.8l0.5,0.3c-0.1,0.1-0.2,0.2-0.2,0.3c0,0-0.2-0.1-0.2-0.1
	C459.4,180.1,459.4,180,459.4,179.8z M435.2,184.8l0.2,0.1c-0.1,0.1-0.1,0.1-0.1,0.2c-0.1,0.1-0.1,0-0.2-0.1L435.2,184.8z
	 M478,174.9c-0.1,0.1-0.2,0.2-0.3,0.2c-0.1,0-0.1-0.1-0.2-0.2c-0.1-0.1,0.1-0.1,0.2-0.1C477.8,174.8,477.9,174.8,478,174.9z
	 M456.3,171.1l0.1,0.1l-0.1,0.1h-0.1L456.3,171.1L456.3,171.1z M454.9,169.3c-0.1,0.1-0.1,0.2-0.2,0.3c-0.1,0.1-0.2,0.1-0.3,0.1
	c0-0.1,0.1-0.2,0.1-0.3C454.6,169.2,454.7,169.3,454.9,169.3z M433.6,183.4l-0.1,0.2c-0.1-0.1-0.1-0.1-0.1-0.1
	c-0.1-0.1,0.1-0.1,0.1-0.1C433.5,183.4,433.6,183.4,433.6,183.4L433.6,183.4z M475.7,170.9c0,0.1-0.1,0.1-0.1,0.2h-0.1v-0.2H475.7z
	 M461.3,169.9L461.3,169.9v0.1C461.3,170,461.3,169.9,461.3,169.9L461.3,169.9z M449.9,170.2h0.2c0,0.1-0.1,0.1-0.1,0.2h-0.1V170.2z
	 M481.1,168.5L481.1,168.5L481.1,168.5L481.1,168.5z M467.9,178.8h0.1v0.1L467.9,178.8L467.9,178.8z M524.1,167.4l-0.2-0.5l0.1-0.1
	C524,167,524.1,167.2,524.1,167.4z M497.3,161h0.1v0.1c0,0.1-0.1,0-0.1,0V161z M448.8,190.4h-0.2c0.1-0.1,0.1-0.1,0.1-0.2h0.1
	C448.8,190.3,448.8,190.4,448.8,190.4L448.8,190.4z M476.4,174.4l-0.1,0.1l0.1-0.2L476.4,174.4L476.4,174.4z M480.8,167.6
	L480.8,167.6L480.8,167.6L480.8,167.6z M507.6,165.9l-1.2,1.2c-0.2,0.2-0.5,0-0.7-0.1c-0.1-0.1-0.1-0.5,0-0.6
	c0.2-0.2,0.5-0.3,0.8-0.4C506.9,165.9,507.2,165.9,507.6,165.9L507.6,165.9z M509.7,158.8c0.1,0.2,0.2,0.2,0.2,0.4
	c-0.1,0.1-0.2,0.2-0.3,0.3c-0.1,0-0.3-0.1-0.3-0.1C509.2,159.3,509.5,159.1,509.7,158.8L509.7,158.8z"/>
<path fill="none" stroke="#000000" stroke-width="1.08" stroke-linecap="round" stroke-linejoin="round" d="M438,185.1l-2.4,1.1
	 M525.6,183.7l-0.3-2.7 M488.2,178.1l-3.5,1.2 M446.5,176.3c1.1,0.2,2.4,0.2,3,1.3 M508.5,154c-1.4,0.4-3.1,0.3-4,1.6
	c-0.2,0.4-0.2,0.8-0.2,1.2 M509.7,157.4c0.7-0.2,1.5-0.4,2.3-0.7c0.7-0.2,1.4-0.3,2.1-0.5 M490.8,165.8l-2,0.5 M458.1,186
	c0.3,1.1-0.8,1-1.4,1.3c-0.7,0.4-1.5,1.1-2.5,0.8 M506.1,220.8c-0.2,0.3-0.5,0.8-0.4,1.1c0.4,1.1-0.2,1.6-1,2.1 M454.9,173.1
	c-0.7-0.6-1.2-1.4-2.5-0.9 M435.7,179.2l-0.8,0.7 M476,179.3l-3.8,1.2 M487.1,176.5c-0.6,0.8-1.6,1.3-2.7,1.1
	c-1-0.2-1.5,0.3-2.2,0.7 M475.6,181.1l-0.8,0.3 M468.4,164l-4.5,0.5 M442.6,171.1H442 M518.8,163.9l-0.3-2.5 M521.5,152.7l-2.2,0.5
	 M473.7,169.2l-3.8,1.1 M467.8,169c0.1,0.4,0.2,0.8,0.3,1.3l-1.2,0.6 M462.5,171.5l-6.1,2.3 M463.8,171.4c-0.1,0.9-1.1,1.1-1.6,1.7
	c-0.5,0.6-1,1.2-1.5,1.7 M525.6,167l0.3-3.1 M493.6,168.2l-1.9,1.2 M525.6,178.7v-0.3c0.1-1-0.9-1.7-1.4-2.7
	c-0.2,0.2-0.4,0.4-0.6,0.6 M476.6,161.7l-2.9,0.4 M508.5,163.6l-2.9,1 M457.1,174.7l-0.5-0.2 M520.4,157.7c0.1-0.4,0.1-0.8,0.2-1.2
	l-1.4,0.1c-0.2,0-0.5,0.1-0.7,0.1c-1,0.7-2.2,1.2-3.3,1.4c-1.1,0.2-2.1,0.6-3.1,0.9c-1.5,0.7-1.8,1.1-2.2,2 M487.8,169.8l-3.5,0.7
	 M483,173.8l-2.8,0.8 M438.1,181.1c-0.4,0.4-0.8,0.8-1.2,1.1c-0.7,0.6-0.8,1-0.1,1.5 M468.8,175.2c-0.7-0.9-1.2-1-2-0.2
	c-0.2,0.2-0.5,0.5-0.7,0.7 M475.7,172.9c-0.2,0-0.5,0-0.7,0.1c-0.9,0.3-1.7,0.8-2.8,0.6c-0.5-0.1-1.2,0.4-1.8,0.7 M477.5,162.5
	c-0.4,1-1.2,1.8-2.2,2.2c-0.6,0.2-0.9,0.9-1.4,1.3c-0.2,0.1-0.4,0.3-0.6,0.3 M434.5,180c0.7,0.7,1.6,0.1,2.4,0.2 M470.5,178.9
	c0-0.9,0.9-0.8,1.5-0.9c0.1,0,0.4,0.3,0.4,0.4c-0.2,0.4-0.3,0.8-0.6,1.1 M486.4,175.3c-1.2-0.4-2.2,0.1-2.8,1.1 M508.6,167.4
	c-0.2-0.2-0.5-0.4-0.8-0.6 M515,170.6l-0.6,0.6 M473.2,161.6c0.1-0.6-0.3-0.5-0.7-0.4c-0.6,0.2-1.5,0.4-1.2,1.1
	c0.3,1.1-0.3,1.4-1.2,1.7 M495.8,162.1c-0.8,0.5-1.8,0.7-2.8,0.6 M469.1,175.4c0.2,0.4,0.3,0.9,0.6,1.4l-1.1,0.6 M495,156.9
	l-2.6,1.3 M483.7,166.6l2.1,0.6 M474.7,167c-0.8,0.3-1.5,0.8-1,1.7 M476.9,168.6l2.7-0.2 M453.7,173.7l-1.2,0.1 M525.5,176.9
	c0.6-1.8-0.1-3.2-0.5-4.4 M500.5,169.2c-1.2,1.3-3.3,0.9-4.7,1.8c-0.4,0.2-0.8,0.4-1.2,0.6 M445.5,173.5l-0.6,1.2 M479.6,171.5
	l-3.6,1.3 M490.1,177.9l-1.2,0.3 M462.3,177.3c-1.5,0-3.1,0.4-4.4,1.2 M496.6,158.6l2.2-0.9 M453.1,182.2l2.7,0.4 M454.1,180.5
	l2.4-0.2 M524.2,163.3c-0.2-0.3-0.4-0.7-0.6-1.1 M509.3,163.1c0.3-0.6,0.6-1.2,1-2l-3.1,1.1 M525.2,180.8c-0.5-0.7-1.2-0.8-2-0.6
	 M518.9,166.9l-0.2-2.2 M443.9,172.1l-1.6,3.1 M486,160.6l-2,0.9 M474.3,167.6h2.1 M438.4,185.3l-0.3,1.6 M503.2,157.8
	c-1.3-0.2-2.7-0.3-4.2-0.4 M457.4,172.1l-1.8,1.1 M523.3,234.5l-0.6-1.3 M456.2,167.3l-2,0.7 M502.7,165l2.9-0.7v0.4
	c-0.7,0.6-1.2,1.1-1.8,1.7 M439.7,171.2l-3.3,0.4 M525.3,187.3c0.5-0.6,0.5-1.4,0.1-1.9 M486.5,165.9c-1-0.7-1.6,0.2-2.2,0.7
	 M520.4,171.5l-0.2,1.3 M524.8,172.6l0.1-3.4 M482.2,163c0.2-0.2,0.3-0.4,0.5-0.6c0.5-0.6,1-1.1,1.8-0.3c0.5,0.2,0.9,0.4,1.4,0.5
	 M495.5,169l1.9-0.2 M490.6,160.3c0.2,0.3,0.4,0.7,0.7,1c0.7,0.8,0.4,1.4-0.3,2.1 M523.7,149.8c-0.8,0.4-1.8,0.7-2.7,0.9
	c-0.8,0.2-1.7,0.4-2.5,0.7 M520.9,158.7c-0.5,1.9-0.3,2.8,0.6,2.8 M455,170.6h-1.8 M484.1,167l-1.5,0.9 M488.8,172.5l1.8-0.3
	 M510.3,161.2c1.1-0.1,2.1-0.2,3.1-0.2 M491.5,167.9c0.7-0.7,1.4-0.7,2.1-0.1 M466.5,176.8l-1.2,1.3 M523.4,170.7l-0.6-2.1
	 M468.2,180.3l1.6,0.4 M521,181.9c-0.7-0.6-0.3-1.3-0.3-2.1 M520.7,179.7l-1.8-1.2 M473.1,165.5l-1.5,0.6 M468,168.6
	c0.3-0.3,0.7-0.5,1-0.7c0.4-0.1,0.8-0.1,1.2,0l-0.6,1 M507.5,165.9l-1.3,0.7 M512,153c0.8,0,1.6,0,2.3,0.1 M505.9,170.4
	c-0.1,0.4-0.1,0.8-0.1,1.2 M454,175l-1.5,0.2 M480.7,177.4l0.4,1.3 M471.6,166.8l-1.3,0.8"/>
<path fill="none" stroke="#000000" stroke-width="1.08" stroke-linecap="round" stroke-linejoin="round" d="M517.9,155.7
	c-0.6,0.6-1.1,1.2-1.6,1.8 M503.3,166.2l0.4,0.2 M504.2,162l1.6-0.2 M522.3,166c-0.2-0.5-0.5-0.9-0.6-1.4 M481.6,163.5l-1.1,0.9
	 M468.6,161.7l-1.4,0.4 M457.4,183.8c0.5-0.8,1-1.6,2.2-1.2 M470.2,174.5l-1.3,0.8 M460.5,180.8l1.1,0.7 M481.5,160.8l-1.2,0.1
	 M501.7,161.3c0.7,0.3,1.5,0.6,2.2,0.9 M521.5,170.8l0.1-1.8 M485.5,159.7l-1.3,0.2 M439.2,173.1l3.1-1.1 M442.5,173.1
	c-0.5,0.2-1,0.3-0.6,0.9 M456.2,174l-1.1,0.6 M504.3,167.9h0.9 M473.8,176.6l0.4,1.1 M463.6,172.3c0.2,0.3,0.3,0.7-0.3,0.8
	 M521.8,162.6l0.3-3.3 M454.8,178.4c0.6,0.8-0.5,0.9-0.7,1.4 M482.4,171.4l-1.8,0.6 M508.6,163.7c-0.3,0.5-0.6,1-0.8,1.4
	 M499.8,167.2l-1.9,1.5 M503.8,167.9c-0.2,0.4-0.3,0.8-0.5,1.3 M489,169.8l1.1-0.2c0.2,0.3-0.2,1.2,0.8,0.5 M467.7,165.9l0.8,2.1
	 M462.6,166.1l2.2,0.1 M466.4,184l0.5,0.9 M466.8,171c0.3,0.4,0.7,0.8,0.6,1.4 M497.9,169.3l0.4,0.8 M472.9,170.9l-1.2,0.2
	 M471.1,161.6l-1,0.7 M460.1,176.6l0.2,0.8 M489.5,165.2l-0.8,0.4 M497.6,156.5l-1.7,0.3 M470.3,184c0.6-0.4,1.4-0.6,2.1-0.4
	 M490.2,168.2c-0.1,0.4-1.1,0.1-0.8,0.8 M476.9,167.1l-0.3,1.4 M442.7,174.3l-1.7,0.1 M520.6,169l-0.1-1.7 M463.7,164.5l-0.8-0.6
	 M479.5,176.6l0.2,0.4 M462.4,178.1l-0.5,0.1 M484.7,176.5l0.3,0.1 M467.4,184.8l-0.9,0.3 M510.2,163.2l-0.1,0.4 M480.9,167.6
	l-0.2,0.3 M524.1,237.1l-0.2-0.2 M487.2,162.4l-0.2,0.3"/>
</svg>
