<svg id="Glyph" xmlns="http://www.w3.org/2000/svg" viewBox="0 0 64 64"><title>Contacts</title><path fill="#FFFFFF" d="M58.43853,44.73847l-8.98186-4.49093a2.86427,2.86427,0,0,0-3.40325.67849c-2.17543,2.42318-4.32936,3.76938-6.39718,3.99557a4.81359,4.81359,0,0,1-3.19856-.85084,70.22447,70.22447,0,0,1-16.693-15.93909c-2.51816-3.68621.15719-6.69842,3.16622-9.5957a2.87136,2.87136,0,0,0,.46315-3.58636l-4.97558-8.1957a2.82355,2.82355,0,0,0-3.66171-1.06618L5.581,10.1571A2.86191,2.86191,0,0,0,4.15947,13.668C17.72922,53.56961,45.41805,58.14671,53.5814,58.59909a2.86084,2.86084,0,0,0,2.76782-1.76624l3.4463-8.49728A2.84856,2.84856,0,0,0,58.43853,44.73847Z"/></svg>